<svg id="Layer_1" data-name="Layer 1" xmlns="http://www.w3.org/2000/svg" width="346.12" height="354.75" viewBox="0 0 346.12 354.75">
  <defs>
    <style>
      .cls-1 {
        fill: #d5ecfd;
      }
    </style>
  </defs>
  <g>
    <path class="cls-1" d="M89.29,59.26a2,2,0,0,1-1.58.35,2.09,2.09,0,0,1-1.35-.91L74,41a2.09,2.09,0,0,1-.39-1.59A2.15,2.15,0,0,1,76,37.67a2.11,2.11,0,0,1,1.36.91L89.78,56.31a2.14,2.14,0,0,1,.38,1.59A2,2,0,0,1,89.29,59.26ZM87.63,37.58a1.82,1.82,0,0,1,1.52-.26,2,2,0,0,1,1.23.73,2.13,2.13,0,0,1,.22,1.77l-3,13.94L84.66,49.9,86.76,39A2.1,2.1,0,0,1,87.63,37.58Zm11.13,15a2,2,0,0,1-1.65.3L87.9,51l.92-4.22,9.06,2a2.23,2.23,0,0,1,1.44.91,1.82,1.82,0,0,1,.27,1.63A2.27,2.27,0,0,1,98.76,52.6Z" transform="translate(-3.99 -1.56)"/>
    <path class="cls-1" d="M110.13,46.64A10.1,10.1,0,0,1,105,47.93a8.55,8.55,0,0,1-4.53-1.43,9.87,9.87,0,0,1-3.28-3.73,10.77,10.77,0,0,1-1.39-5.35,9,9,0,0,1,1.35-4.56,8.52,8.52,0,0,1,3.29-3.08,7.94,7.94,0,0,1,3.31-.92,9.09,9.09,0,0,1,3.42.48,9.65,9.65,0,0,1,3.08,1.71,9,9,0,0,1,2.3,2.83,1.8,1.8,0,0,1,.05,1.52,2.16,2.16,0,0,1-1.05,1.14l-11.75,6.2-2.55-2.61,11.29-6-.35,1-.44-.84A3.22,3.22,0,0,0,106.29,33a4.65,4.65,0,0,0-4,.14,6.64,6.64,0,0,0-1.6,1.16,3.8,3.8,0,0,0-.94,1.56A4.69,4.69,0,0,0,99.63,38a8.89,8.89,0,0,0,1,2.69,6.17,6.17,0,0,0,2.19,2.46,5.27,5.27,0,0,0,2.71.83,5.35,5.35,0,0,0,2.64-.62,8.21,8.21,0,0,0,1.72-1.14,4.92,4.92,0,0,0,.86-1c.18-.32.35-.6.51-.85a2.79,2.79,0,0,1,.9-.83,1.77,1.77,0,0,1,2.39.73,2.21,2.21,0,0,1-.06,2,8.35,8.35,0,0,1-1.62,2.37A10.08,10.08,0,0,1,110.13,46.64Z" transform="translate(-3.99 -1.56)"/>
    <path class="cls-1" d="M127.41,18.36a2,2,0,0,1,1.61.05,2.06,2.06,0,0,1,1.08,1.24l5,13.93a2.09,2.09,0,0,1,0,1.63,2,2,0,0,1-1.19,1.08,2,2,0,0,1-1.62-.06A2.08,2.08,0,0,1,131.22,35l-.59-1.62.83,0a2,2,0,0,1-.08,1.2,6.59,6.59,0,0,1-.81,1.65,7.92,7.92,0,0,1-1.49,1.67,6.61,6.61,0,0,1-2.15,1.25,7.93,7.93,0,0,1-4.51.31,8.64,8.64,0,0,1-4.06-2.18A10.77,10.77,0,0,1,115.58,33a10.76,10.76,0,0,1-.65-5.14,8.82,8.82,0,0,1,1.69-4.26A7.68,7.68,0,0,1,120.19,21a8,8,0,0,1,2.73-.51,8.51,8.51,0,0,1,2.44.35,6.49,6.49,0,0,1,1.83.85,2.3,2.3,0,0,1,.88,1l-1,.86-.87-2.41a2,2,0,0,1,0-1.63A2,2,0,0,1,127.41,18.36Zm-1.3,17a4.68,4.68,0,0,0,2.25-1.63,5.17,5.17,0,0,0,1-2.59,6.63,6.63,0,0,0-.4-3,6.87,6.87,0,0,0-1.63-2.62,5.28,5.28,0,0,0-2.4-1.36,4.69,4.69,0,0,0-2.78.19A4.61,4.61,0,0,0,119.9,26a5.14,5.14,0,0,0-1,2.58,7.32,7.32,0,0,0,2,5.63,5.21,5.21,0,0,0,2.4,1.37A4.65,4.65,0,0,0,126.11,35.39Z" transform="translate(-3.99 -1.56)"/>
    <path class="cls-1" d="M149.91,37a2.07,2.07,0,0,1-1.28-.31,1.52,1.52,0,0,1-.8-1.15,1.75,1.75,0,0,1,.08-.87l9.68-30.84a1.87,1.87,0,0,1,.54-.86,1.56,1.56,0,0,1,.82-.41,2,2,0,0,1,1.25.29A1.53,1.53,0,0,1,161,4.05a1.72,1.72,0,0,1-.08.86l-9.64,30.84a2.09,2.09,0,0,1-.53.86A1.52,1.52,0,0,1,149.91,37Z" transform="translate(-3.99 -1.56)"/>
    <path class="cls-1" d="M165.16,34.83a2,2,0,0,1-1.23-.44,1.53,1.53,0,0,1-.68-1.24,1.82,1.82,0,0,1,.18-.84L176.36,2.67a2,2,0,0,1,.63-.79,1.49,1.49,0,0,1,.85-.32,2,2,0,0,1,1.22.43,1.5,1.5,0,0,1,.66,1.25,2,2,0,0,1-.17.85l-12.9,29.63a2,2,0,0,1-.61.79A1.55,1.55,0,0,1,165.16,34.83Z" transform="translate(-3.99 -1.56)"/>
    <path class="cls-1" d="M205.7,12.92A5.53,5.53,0,0,1,209.47,15a6.6,6.6,0,0,1,1.05,3.75l-.52-.42.38-.5a8.38,8.38,0,0,1,4-2.6,6.73,6.73,0,0,1,6.37,1.67,5.49,5.49,0,0,1,1.22,3.17,15.33,15.33,0,0,1-.28,4l-1.7,8.8a2,2,0,0,1-.87,1.38,1.94,1.94,0,0,1-1.58.32,2,2,0,0,1-1.35-.88,2.14,2.14,0,0,1-.3-1.61l1.7-8.8a6.87,6.87,0,0,0,.12-2.09,2.88,2.88,0,0,0-.71-1.66,3.41,3.41,0,0,0-1.94-.94,4.3,4.3,0,0,0-2.33.12A3.61,3.61,0,0,0,211,20a4.5,4.5,0,0,0-.86,1.95l-1.69,8.8a2.11,2.11,0,0,1-.87,1.38,1.94,1.94,0,0,1-1.58.32,2,2,0,0,1-1.36-.88,2.13,2.13,0,0,1-.29-1.61l1.69-8.8a7.23,7.23,0,0,0,.13-2.09,2.94,2.94,0,0,0-.71-1.66,3.44,3.44,0,0,0-1.95-.94,4.27,4.27,0,0,0-2.32.12,3.64,3.64,0,0,0-1.67,1.2,4.49,4.49,0,0,0-.85,2l-1.7,8.8a2.06,2.06,0,0,1-.86,1.38,2.14,2.14,0,0,1-2.94-.56,2.09,2.09,0,0,1-.29-1.61l2.73-14.19a2.12,2.12,0,0,1,.87-1.39,2,2,0,0,1,1.58-.32,2,2,0,0,1,1.36.89,2.13,2.13,0,0,1,.29,1.61l-.29,1.47-.49-.2a8.11,8.11,0,0,1,1.1-1.09,7.82,7.82,0,0,1,1.57-1,7.69,7.69,0,0,1,1.92-.61A6.07,6.07,0,0,1,205.7,12.92Z" transform="translate(-3.99 -1.56)"/>
    <path class="cls-1" d="M242.35,23.84a2,2,0,0,1,1.18,1.1,2.09,2.09,0,0,1,0,1.63l-3.15,8.31a8.23,8.23,0,0,1-4,4.78,7.8,7.8,0,0,1-6.3-.07,7.67,7.67,0,0,1-4.74-4.12,8.22,8.22,0,0,1,.18-6.22l3.15-8.31a2.12,2.12,0,0,1,1.09-1.22,2.14,2.14,0,0,1,2.8,1.06,2.12,2.12,0,0,1,0,1.64l-3.15,8.31a4.55,4.55,0,0,0-.24,3.29,3.59,3.59,0,0,0,2.26,2,3.66,3.66,0,0,0,3,0,4.62,4.62,0,0,0,2-2.62l3.15-8.32a2.1,2.1,0,0,1,1.09-1.21A2,2,0,0,1,242.35,23.84Z" transform="translate(-3.99 -1.56)"/>
    <path class="cls-1" d="M246.18,44a2.09,2.09,0,0,1-2.85,1,1.94,1.94,0,0,1-1-1.2,2,2,0,0,1,.14-1.62L252,22.77a2.09,2.09,0,0,1,1.23-1.09,2,2,0,0,1,1.62.12A1.93,1.93,0,0,1,255.94,23a2.11,2.11,0,0,1-.16,1.62Z" transform="translate(-3.99 -1.56)"/>
    <path class="cls-1" d="M264.08,30.34a2,2,0,0,1,.95,1.28,2.16,2.16,0,0,1-.28,1.61l-8,13.39a1.5,1.5,0,0,0-.24.79,1.07,1.07,0,0,0,.21.65,1.7,1.7,0,0,0,.54.49,1.91,1.91,0,0,0,.74.25,1.9,1.9,0,0,1,.77.28,1.16,1.16,0,0,1,.53.84,1.89,1.89,0,0,1-.3,1.29,1.84,1.84,0,0,1-1.73.84,4.45,4.45,0,0,1-2.29-.62,12.52,12.52,0,0,1-1.32-.93,4.28,4.28,0,0,1-1.13-1.37,3.54,3.54,0,0,1-.38-1.91,5.71,5.71,0,0,1,.93-2.59l8-13.54a2.11,2.11,0,0,1,2.92-.75Zm-5.44,1.86,7.09,4.21a1.9,1.9,0,0,1,.67,2.68,1.8,1.8,0,0,1-1.17.88,1.89,1.89,0,0,1-1.47-.25l-7.08-4.21a1.84,1.84,0,0,1-.91-1.19,1.93,1.93,0,0,1,.23-1.49,1.8,1.8,0,0,1,1.17-.87A1.93,1.93,0,0,1,258.64,32.2Z" transform="translate(-3.99 -1.56)"/>
    <path class="cls-1" d="M265.23,55.64a2.12,2.12,0,0,1-1.36.92,2,2,0,0,1-1.57-.36,2,2,0,0,1-.88-1.36,2.08,2.08,0,0,1,.39-1.58l8.26-11.86a2.11,2.11,0,0,1,1.36-.91,2.13,2.13,0,0,1,2.45,1.71,2.1,2.1,0,0,1-.39,1.59Zm9-16.68a2.81,2.81,0,0,1-1.15-1.27,1.66,1.66,0,0,1,.38-1.4l.38-.55a1.56,1.56,0,0,1,1.23-.82,2.88,2.88,0,0,1,1.57.64,2.8,2.8,0,0,1,1.17,1.29,1.63,1.63,0,0,1-.38,1.4l-.38.54a1.56,1.56,0,0,1-1.22.84A3,3,0,0,1,274.28,39Z" transform="translate(-3.99 -1.56)"/>
    <path class="cls-1" d="M287.3,51.48a5.55,5.55,0,0,1,2.13,3.76A6.74,6.74,0,0,1,288.37,59l-.23-.63.59-.23a8,8,0,0,1,2.11-.41,7.91,7.91,0,0,1,2.62.25,6,6,0,0,1,2.48,1.38A5.83,5.83,0,0,1,298,62.71a5.48,5.48,0,0,1-.62,3.34,15,15,0,0,1-2.33,3.29L289,76a2.06,2.06,0,0,1-1.46.72,2,2,0,0,1-1.52-.55,2,2,0,0,1-.69-1.46,2.08,2.08,0,0,1,.59-1.52l6-6.63a7.11,7.11,0,0,0,1.2-1.73,2.81,2.81,0,0,0,.25-1.77,3.34,3.34,0,0,0-1.16-1.82,4.25,4.25,0,0,0-2-1.11,3.52,3.52,0,0,0-2,.15,4.49,4.49,0,0,0-1.75,1.22l-6,6.63a2.11,2.11,0,0,1-1.46.73,2.14,2.14,0,0,1-2.21-2,2.09,2.09,0,0,1,.59-1.52l6-6.63a7.07,7.07,0,0,0,1.2-1.72,2.84,2.84,0,0,0,.25-1.78,3.32,3.32,0,0,0-1.16-1.82,4.43,4.43,0,0,0-2.05-1.11,3.69,3.69,0,0,0-2,.15,4.59,4.59,0,0,0-1.75,1.23l-6,6.62a2.09,2.09,0,0,1-1.46.73,2,2,0,0,1-1.52-.55,2,2,0,0,1-.69-1.46,2.1,2.1,0,0,1,.59-1.53l9.73-10.69a2.12,2.12,0,0,1,1.46-.72,2.12,2.12,0,0,1,2.21,2,2.05,2.05,0,0,1-.58,1.52l-1,1.12-.31-.43a8.27,8.27,0,0,1,1.5-.36,7.18,7.18,0,0,1,1.86,0,6.78,6.78,0,0,1,2,.48A6,6,0,0,1,287.3,51.48Z" transform="translate(-3.99 -1.56)"/>
    <path class="cls-1" d="M294.67,87.47a10.23,10.23,0,0,1-2.19-4.81,8.58,8.58,0,0,1,.6-4.71,10,10,0,0,1,3.09-3.89,10.63,10.63,0,0,1,5-2.32,9.19,9.19,0,0,1,4.74.51,8.6,8.6,0,0,1,3.61,2.69A7.76,7.76,0,0,1,311,78a9,9,0,0,1,.15,3.44A9.79,9.79,0,0,1,310,84.83a9.17,9.17,0,0,1-2.37,2.76,1.82,1.82,0,0,1-1.49.32,2.18,2.18,0,0,1-1.31-.83l-8.19-10.46,2.11-3,7.87,10-1-.17.74-.58a3.16,3.16,0,0,0,1-1.68,4.72,4.72,0,0,0,0-2.05,4.44,4.44,0,0,0-.88-1.89A6.49,6.49,0,0,0,305.08,76a3.7,3.7,0,0,0-1.71-.65,4.51,4.51,0,0,0-2.05.28A9,9,0,0,0,298.86,77a6.05,6.05,0,0,0-2,2.59,5.34,5.34,0,0,0,.75,5.31A8.63,8.63,0,0,0,299,86.42a4.64,4.64,0,0,0,1.16.65l.93.36a2.6,2.6,0,0,1,1,.74,1.75,1.75,0,0,1-.28,2.47,2.2,2.2,0,0,1-1.95.3,8.14,8.14,0,0,1-2.63-1.17A10.08,10.08,0,0,1,294.67,87.47Z" transform="translate(-3.99 -1.56)"/>
    <path class="cls-1" d="M331.4,95.77a2,2,0,0,1,.24,1.59,2.1,2.1,0,0,1-1,1.29L312,109.58a2.1,2.1,0,0,1-1.61.26,2,2,0,0,1-1.29-1,2,2,0,0,1-.23-1.6,2.12,2.12,0,0,1,1-1.28l1.48-.87.11.82a1.92,1.92,0,0,1-1.19.14,6.78,6.78,0,0,1-1.77-.49,8.12,8.12,0,0,1-1.92-1.16,6.62,6.62,0,0,1-1.61-1.89,7.89,7.89,0,0,1-1.13-4.38,8.71,8.71,0,0,1,1.4-4.39A10.79,10.79,0,0,1,309,90.24a11,11,0,0,1,4.93-1.58,8.81,8.81,0,0,1,4.5.89,7.58,7.58,0,0,1,3.21,3,7.8,7.8,0,0,1,1,2.6,8.26,8.26,0,0,1,.1,2.46,6.61,6.61,0,0,1-.5,1.94,2.25,2.25,0,0,1-.79,1l-1-.85,8.09-4.74a2.06,2.06,0,0,1,1.61-.26A2,2,0,0,1,331.4,95.77ZM308.52,101a4.71,4.71,0,0,0,2,1.92,5.17,5.17,0,0,0,2.72.48,6.69,6.69,0,0,0,2.89-.94,6.93,6.93,0,0,0,2.27-2.08,5.23,5.23,0,0,0,.91-2.61,4.79,4.79,0,0,0-.69-2.7,4.66,4.66,0,0,0-2-1.89,5.19,5.19,0,0,0-2.72-.48,6.89,6.89,0,0,0-2.92,1,6.8,6.8,0,0,0-2.25,2.06,5.22,5.22,0,0,0-.9,2.61A4.63,4.63,0,0,0,308.52,101Z" transform="translate(-3.99 -1.56)"/>
    <path class="cls-1" d="M315.24,117a2.07,2.07,0,0,1-1.63.1,2.13,2.13,0,0,1-1.25-2.71,2.11,2.11,0,0,1,1.13-1.18l13.12-6.07a2.11,2.11,0,0,1,1.63-.1,2.14,2.14,0,0,1,1.26,2.71,2.16,2.16,0,0,1-1.14,1.18Zm16.23-9.85a2.73,2.73,0,0,1-.35-1.68,1.65,1.65,0,0,1,1-1l.61-.28a1.52,1.52,0,0,1,1.48-.09,3,3,0,0,1,1,1.34,2.8,2.8,0,0,1,.36,1.71,1.62,1.62,0,0,1-1,1l-.6.28a1.59,1.59,0,0,1-1.48.11A3,3,0,0,1,331.47,107.14Z" transform="translate(-3.99 -1.56)"/>
    <path class="cls-1" d="M317.51,129.44a10.1,10.1,0,0,1-.55-5.25,8.51,8.51,0,0,1,2.06-4.27,9.9,9.9,0,0,1,4.16-2.72,10.73,10.73,0,0,1,5.49-.61,9,9,0,0,1,4.33,2,8.62,8.62,0,0,1,2.58,3.69,8,8,0,0,1,.43,3.41,9.2,9.2,0,0,1-1,3.31,9.67,9.67,0,0,1-2.14,2.81,8.81,8.81,0,0,1-3.12,1.87,1.81,1.81,0,0,1-1.51-.16,2.2,2.2,0,0,1-1-1.2l-4.46-12.52,3-2.15,4.28,12-.92-.49.89-.31a3.18,3.18,0,0,0,1.48-1.28,4.82,4.82,0,0,0,.67-1.94,4.61,4.61,0,0,0-.24-2.08,6.55,6.55,0,0,0-.92-1.74,3.74,3.74,0,0,0-1.41-1.15,4.57,4.57,0,0,0-2-.39,9,9,0,0,0-2.8.59,6.26,6.26,0,0,0-2.76,1.81,5.35,5.35,0,0,0-1,5.28,7.93,7.93,0,0,0,.88,1.86,5,5,0,0,0,.89,1c.3.23.55.44.77.63a2.61,2.61,0,0,1,.69,1,1.77,1.77,0,0,1-1.05,2.26,2.18,2.18,0,0,1-1.94-.34,7.89,7.89,0,0,1-2.12-1.94A10,10,0,0,1,317.51,129.44Z" transform="translate(-3.99 -1.56)"/>
    <path class="cls-1" d="M349.71,149a2,2,0,0,1-.27,1.59,2.12,2.12,0,0,1-1.39.89l-21.17,4.44a2.09,2.09,0,0,1-1.61-.26,2.12,2.12,0,0,1-.61-2.93,2.06,2.06,0,0,1,1.36-.89l1.68-.35-.15.81a2,2,0,0,1-1.18-.25,6.69,6.69,0,0,1-1.52-1,8.47,8.47,0,0,1-1.45-1.7,6.76,6.76,0,0,1-.93-2.31,7.93,7.93,0,0,1,.32-4.51,8.84,8.84,0,0,1,2.73-3.72,10.75,10.75,0,0,1,4.68-2.14,10.87,10.87,0,0,1,5.18.07,8.93,8.93,0,0,1,4,2.27,7.66,7.66,0,0,1,2.08,3.9,7.75,7.75,0,0,1,.12,2.78,8.09,8.09,0,0,1-.68,2.37,6.52,6.52,0,0,1-1.1,1.68,2.23,2.23,0,0,1-1.07.75l-.71-1.14,9.18-1.92a2.11,2.11,0,0,1,1.62.26A2,2,0,0,1,349.71,149Zm-23.36-2.27a4.7,4.7,0,0,0,1.3,2.46,5.26,5.26,0,0,0,2.42,1.32,7.26,7.26,0,0,0,5.86-1.23,5.24,5.24,0,0,0,1.69-2.18,4.74,4.74,0,0,0,.2-2.78,4.58,4.58,0,0,0-1.3-2.43,5.16,5.16,0,0,0-2.42-1.32,6.8,6.8,0,0,0-3.08,0,6.72,6.72,0,0,0-2.78,1.24,5.13,5.13,0,0,0-1.68,2.18A4.57,4.57,0,0,0,326.35,146.72Z" transform="translate(-3.99 -1.56)"/>
    <path class="cls-1" d="M325.53,168.64a10.2,10.2,0,0,1,.87-5.21,8.51,8.51,0,0,1,3.13-3.58,9.87,9.87,0,0,1,4.73-1.51,10.77,10.77,0,0,1,5.45.87,9,9,0,0,1,3.64,3.07,8.5,8.5,0,0,1,1.51,4.25,8,8,0,0,1-.49,3.4,9.21,9.21,0,0,1-1.8,2.94,10.07,10.07,0,0,1-2.81,2.14,9.19,9.19,0,0,1-3.51,1,1.8,1.8,0,0,1-1.41-.56,2.21,2.21,0,0,1-.63-1.42l-1-13.25,3.42-1.3.93,12.73-.76-.71.94-.07a3.18,3.18,0,0,0,1.77-.84,4.62,4.62,0,0,0,1.15-1.69,4.54,4.54,0,0,0,.33-2.06,6.42,6.42,0,0,0-.42-1.92,3.81,3.81,0,0,0-1.06-1.5,4.63,4.63,0,0,0-1.86-.91,8.69,8.69,0,0,0-2.85-.17,6.19,6.19,0,0,0-3.14,1,5.36,5.36,0,0,0-1.84,2.16,5.24,5.24,0,0,0-.49,2.67,7.83,7.83,0,0,0,.36,2,4.7,4.7,0,0,0,.59,1.19c.22.3.41.57.57.82a2.52,2.52,0,0,1,.4,1.15,1.68,1.68,0,0,1-.43,1.31,1.73,1.73,0,0,1-1.18.59,2.19,2.19,0,0,1-1.78-.85,7.82,7.82,0,0,1-1.53-2.43A10.07,10.07,0,0,1,325.53,168.64Z" transform="translate(-3.99 -1.56)"/>
    <path class="cls-1" d="M329.3,178.54a2,2,0,0,1,1.27-.26,1.69,1.69,0,0,1,1.29,1,1.89,1.89,0,0,1,.25,1.2,2,2,0,0,1-.7,1.19,8.1,8.1,0,0,0-1.67,2.05,6.22,6.22,0,0,0-.68,2.75,10.47,10.47,0,0,0,.11,1.16,2.17,2.17,0,0,0,.51,1.12,1.76,1.76,0,0,0,1.33.52,1.54,1.54,0,0,0,1.24-.46,4.44,4.44,0,0,0,.83-1.34c.24-.56.46-1.19.68-1.87s.51-1.44.8-2.18a9.5,9.5,0,0,1,1.08-2,4.73,4.73,0,0,1,1.7-1.46,5.08,5.08,0,0,1,2.57-.48,4.62,4.62,0,0,1,2.93,1.1,6.43,6.43,0,0,1,1.78,2.61,8.08,8.08,0,0,1,.52,3.27,10.31,10.31,0,0,1-.36,2.25,9,9,0,0,1-.93,2.22,5.68,5.68,0,0,1-1.6,1.74,2.55,2.55,0,0,1-1.28.4,1.52,1.52,0,0,1-1.3-.72,1.67,1.67,0,0,1-.32-1.23,1.85,1.85,0,0,1,.53-1.13,4.2,4.2,0,0,0,1.29-1.52,5.34,5.34,0,0,0,.55-2.26,5.57,5.57,0,0,0-.07-1.13,2.29,2.29,0,0,0-.48-1.09,1.61,1.61,0,0,0-1.26-.5,1.64,1.64,0,0,0-1.3.46,4.16,4.16,0,0,0-.83,1.37c-.22.59-.44,1.21-.66,1.87s-.46,1.39-.75,2.09a8.78,8.78,0,0,1-1.1,1.94,4.88,4.88,0,0,1-1.69,1.39A5.14,5.14,0,0,1,331,193a4.62,4.62,0,0,1-3-1.17,6.63,6.63,0,0,1-1.79-2.69,8.38,8.38,0,0,1-.51-3.23,12.39,12.39,0,0,1,.9-4.07A7.14,7.14,0,0,1,329.3,178.54Z" transform="translate(-3.99 -1.56)"/>
    <path class="cls-1" d="M327,199.9a2.1,2.1,0,0,1-1.44-.77,2,2,0,0,1-.42-1.56,2,2,0,0,1,.79-1.41,2.08,2.08,0,0,1,1.58-.4l14.35,1.77a2.16,2.16,0,0,1,1.44.78,2,2,0,0,1,.42,1.56,2,2,0,0,1-.79,1.4,2,2,0,0,1-1.58.4Zm19,.21a2.81,2.81,0,0,1,.59-1.61,1.65,1.65,0,0,1,1.41-.31l.66.08a1.54,1.54,0,0,1,1.31.7,3,3,0,0,1,.16,1.69,2.79,2.79,0,0,1-.59,1.64,1.65,1.65,0,0,1-1.41.32l-.66-.09a1.58,1.58,0,0,1-1.31-.68A3.11,3.11,0,0,1,345.93,200.11Z" transform="translate(-3.99 -1.56)"/>
    <path class="cls-1" d="M341.48,214.87a7.34,7.34,0,0,1-1,2.51,7.82,7.82,0,0,1-1.58,1.81,7,7,0,0,1-1.69,1,2.23,2.23,0,0,1-1.29.23l-.24-1,2.49.56a2.11,2.11,0,0,1,1.36.91,2,2,0,0,1,.27,1.59,2,2,0,0,1-2.54,1.57l-15.2-3.4a8.27,8.27,0,0,1-4.48-2.34,7.42,7.42,0,0,1-1.85-3.92,12.74,12.74,0,0,1,.19-4.63,11.77,11.77,0,0,1,.57-1.73c.28-.7.57-1.35.87-2a12.24,12.24,0,0,1,.78-1.4,3,3,0,0,1,1.43-1.16,1.73,1.73,0,0,1,1.45.17,2.22,2.22,0,0,1,1.13,1.28,1.75,1.75,0,0,1-.24,1.45q-.18.31-.66,1c-.32.48-.63,1-1,1.59a7.26,7.26,0,0,0-.62,1.59,5.94,5.94,0,0,0,.18,4,3.61,3.61,0,0,0,2.56,1.85l3,.67-.39.34a2.07,2.07,0,0,1-1-.7,6.36,6.36,0,0,1-1-1.54,7.77,7.77,0,0,1-.62-2.11,6.14,6.14,0,0,1,.09-2.41,8.21,8.21,0,0,1,2.18-4.07,8.68,8.68,0,0,1,4-2.3,11.6,11.6,0,0,1,9.84,2.2,8.73,8.73,0,0,1,2.67,3.77A7.93,7.93,0,0,1,341.48,214.87Zm-3.9-.2a4.87,4.87,0,0,0-.15-2.84,5.17,5.17,0,0,0-1.65-2.26,7.14,7.14,0,0,0-5.84-1.31,5.21,5.21,0,0,0-2.45,1.34,5.37,5.37,0,0,0-1.21,5.4,5.2,5.2,0,0,0,1.65,2.25,6.54,6.54,0,0,0,2.76,1.3,6.68,6.68,0,0,0,3.08,0,5.13,5.13,0,0,0,2.45-1.34A4.94,4.94,0,0,0,337.58,214.67Z" transform="translate(-3.99 -1.56)"/>
    <path class="cls-1" d="M334,240a6.1,6.1,0,0,1-2.39,3.28,5.51,5.51,0,0,1-3.35.71,14.48,14.48,0,0,1-3.93-.93l-8.39-3.14a2.12,2.12,0,0,1-1.22-1.09,2.13,2.13,0,0,1,1.05-2.8,2.09,2.09,0,0,1,1.63,0l8.39,3.14a7.13,7.13,0,0,0,2.06.46,2.86,2.86,0,0,0,1.76-.48,3.66,3.66,0,0,0,1.3-1.85,4.6,4.6,0,0,0,.29-2.4,3.84,3.84,0,0,0-.88-1.89,4.29,4.29,0,0,0-1.77-1.2l-8.39-3.14a2.09,2.09,0,0,1-1.22-1.09,2.13,2.13,0,0,1,1-2.8,2.14,2.14,0,0,1,1.63,0l13.54,5.07a2.12,2.12,0,0,1,1.22,1.09,2.13,2.13,0,0,1-1.05,2.8,2.09,2.09,0,0,1-1.63,0l-1.41-.53.28-.45a7,7,0,0,1,.88,1.29,9,9,0,0,1,.71,1.76,7,7,0,0,1,.26,2A6.15,6.15,0,0,1,334,240Z" transform="translate(-3.99 -1.56)"/>
    <path class="cls-1" d="M308,250A10.13,10.13,0,0,1,311.5,246a8.58,8.58,0,0,1,4.55-1.36,9.92,9.92,0,0,1,4.81,1.25,10.66,10.66,0,0,1,4.14,3.65,9,9,0,0,1,1.45,4.54,8.58,8.58,0,0,1-1,4.39,8,8,0,0,1-2.23,2.62,9.29,9.29,0,0,1-3.09,1.52,9.88,9.88,0,0,1-3.52.31,9.05,9.05,0,0,1-3.49-1.06,1.79,1.79,0,0,1-.89-1.22,2.19,2.19,0,0,1,.23-1.54l6.25-11.72,3.58.73-6,11.26-.26-1,.84.44a3.15,3.15,0,0,0,1.94.23,4.83,4.83,0,0,0,1.88-.81,4.41,4.41,0,0,0,1.37-1.57,6.57,6.57,0,0,0,.67-1.85,3.78,3.78,0,0,0-.09-1.83,4.68,4.68,0,0,0-1.09-1.76,8.68,8.68,0,0,0-2.32-1.67,6.15,6.15,0,0,0-3.19-.82,5.34,5.34,0,0,0-4.55,2.84,8.29,8.29,0,0,0-.78,1.9,4.41,4.41,0,0,0-.13,1.33c0,.37,0,.7,0,1a2.52,2.52,0,0,1-.28,1.19,1.73,1.73,0,0,1-2.37.74,2.17,2.17,0,0,1-1.06-1.66,7.92,7.92,0,0,1,0-2.88A9.83,9.83,0,0,1,308,250Z" transform="translate(-3.99 -1.56)"/>
    <path class="cls-1" d="M301.67,261.28a2,2,0,0,1,1.36-.88,2.07,2.07,0,0,1,1.58.37l11.9,8.21a2.08,2.08,0,0,1,.92,1.35,2.12,2.12,0,0,1-1.7,2.46,2.1,2.1,0,0,1-1.58-.37l-2.71-1.87,2.07,1.13a5.76,5.76,0,0,1,.66,1.66,6,6,0,0,1,.11,1.74,6.4,6.4,0,0,1-.39,1.72,7.91,7.91,0,0,1-.82,1.55,2.66,2.66,0,0,1-1.49,1.11,1.8,1.8,0,0,1-1.55-.21,2.11,2.11,0,0,1-1-1.43,1.93,1.93,0,0,1,.32-1.35,3,3,0,0,1,.88-.85,2.85,2.85,0,0,0,.9-.87,3,3,0,0,0,.48-1.22,3.54,3.54,0,0,0-.09-1.5,5.18,5.18,0,0,0-.79-1.6,6.43,6.43,0,0,0-1.62-1.51l-6.82-4.71a2.13,2.13,0,0,1-.92-1.35A2,2,0,0,1,301.67,261.28Z" transform="translate(-3.99 -1.56)"/>
    <path class="cls-1" d="M284.76,275.78a2,2,0,0,1,1.21-.52,1.51,1.51,0,0,1,1.33.44,2,2,0,0,1,.46.74l10.8,30.47a2.07,2.07,0,0,1,.08,1,1.56,1.56,0,0,1-.41.82,2,2,0,0,1-1.18.52,1.55,1.55,0,0,1-1.34-.46,1.92,1.92,0,0,1-.45-.74l-10.82-30.45a2.05,2.05,0,0,1-.1-1A1.61,1.61,0,0,1,284.76,275.78Z" transform="translate(-3.99 -1.56)"/>
    <path class="cls-1" d="M273.87,286.71a2,2,0,0,1,1.26-.39,1.53,1.53,0,0,1,1.28.58,1.88,1.88,0,0,1,.37.78l7.5,31.45a2,2,0,0,1,0,1,1.48,1.48,0,0,1-.49.76,2,2,0,0,1-1.23.4,1.54,1.54,0,0,1-1.28-.61,1.77,1.77,0,0,1-.37-.78l-7.52-31.43a1.88,1.88,0,0,1,0-1A1.49,1.49,0,0,1,273.87,286.71Z" transform="translate(-3.99 -1.56)"/>
    <path class="cls-1" d="M242.35,313.57a2,2,0,0,1,1.68-.11l8.92,3-1.38,4.09-8.77-3.06a2.25,2.25,0,0,1-1.33-1.07,1.81,1.81,0,0,1-.08-1.65A2.33,2.33,0,0,1,242.35,313.57Zm9.34,16.2a1.79,1.79,0,0,1-1.54.08A2,2,0,0,1,249,329a2.11,2.11,0,0,1,0-1.78l4.61-13.51,2.45,4.17-3.34,10.59A2.05,2.05,0,0,1,251.69,329.77Zm.84-21.73a2,2,0,0,1,1.61-.17,2.12,2.12,0,0,1,1.24,1.06l10.27,19a2.12,2.12,0,0,1,.21,1.62,2,2,0,0,1-1,1.25,1.93,1.93,0,0,1-1.6.17A2.12,2.12,0,0,1,262,330l-10.27-19a2.11,2.11,0,0,1-.21-1.62A2,2,0,0,1,252.53,308Z" transform="translate(-3.99 -1.56)"/>
    <path class="cls-1" d="M230.37,318.19a10.16,10.16,0,0,1,5.23-.69,8.44,8.44,0,0,1,4.33,1.94,10,10,0,0,1,2.83,4.08,10.7,10.7,0,0,1,.76,5.47,8.94,8.94,0,0,1-1.87,4.38,8.38,8.38,0,0,1-3.62,2.68,7.89,7.89,0,0,1-3.39.53,9.28,9.28,0,0,1-3.34-.87,9.78,9.78,0,0,1-2.87-2.06,8.94,8.94,0,0,1-2-3.07,1.81,1.81,0,0,1,.12-1.51,2.17,2.17,0,0,1,1.17-1l12.39-4.8,2.24,2.89-11.9,4.61.46-.93.34.88a3.18,3.18,0,0,0,1.32,1.44,4.66,4.66,0,0,0,1.95.62,4.58,4.58,0,0,0,2.07-.3,6.65,6.65,0,0,0,1.72-1,3.84,3.84,0,0,0,1.11-1.45,4.61,4.61,0,0,0,.33-2,8.84,8.84,0,0,0-.66-2.78,6.22,6.22,0,0,0-1.89-2.71,5.36,5.36,0,0,0-5.3-.82,8.37,8.37,0,0,0-1.84.94,4.74,4.74,0,0,0-1,.92c-.22.3-.43.56-.61.78a2.66,2.66,0,0,1-1,.72,1.66,1.66,0,0,1-1.38,0,1.71,1.71,0,0,1-.91-1,2.18,2.18,0,0,1,.29-1.95,8,8,0,0,1,1.88-2.17A10,10,0,0,1,230.37,318.19Z" transform="translate(-3.99 -1.56)"/>
    <path class="cls-1" d="M210,344.27a2,2,0,0,1-1.59-.23,2.07,2.07,0,0,1-.93-1.37l-3.4-14.41a2.08,2.08,0,0,1,.23-1.61,2.14,2.14,0,0,1,2.91-.69,2.1,2.1,0,0,1,.93,1.35l.39,1.67-.82-.14a2,2,0,0,1,.22-1.18,6.62,6.62,0,0,1,1-1.55,8.36,8.36,0,0,1,1.66-1.49,7.07,7.07,0,0,1,2.29-1,8,8,0,0,1,4.52.22,8.73,8.73,0,0,1,3.78,2.63,11.81,11.81,0,0,1,2.31,9.81,8.86,8.86,0,0,1-2.17,4,7.7,7.7,0,0,1-3.85,2.18,8.06,8.06,0,0,1-2.78.19,8.57,8.57,0,0,1-2.38-.63,6.58,6.58,0,0,1-1.71-1.05,2.28,2.28,0,0,1-.77-1.06l1.12-.73.58,2.49a2.08,2.08,0,0,1-.22,1.61A2,2,0,0,1,210,344.27Zm3.27-16.77a4.65,4.65,0,0,0-2.43,1.37,5.19,5.19,0,0,0-1.27,2.45,6.81,6.81,0,0,0,.06,3,7,7,0,0,0,1.32,2.79,5.18,5.18,0,0,0,2.22,1.63,4.7,4.7,0,0,0,2.79.13,4.6,4.6,0,0,0,2.39-1.35,5.13,5.13,0,0,0,1.26-2.46,6.8,6.8,0,0,0-.06-3.07,6.7,6.7,0,0,0-1.31-2.75,5.07,5.07,0,0,0-2.23-1.63A4.55,4.55,0,0,0,213.24,327.5Z" transform="translate(-3.99 -1.56)"/>
    <path class="cls-1" d="M189.73,323.15a2,2,0,0,1,1.24.44,1.52,1.52,0,0,1,.66,1.24,1.86,1.86,0,0,1-.18.85L178.3,355.22a2,2,0,0,1-.63.79,1.58,1.58,0,0,1-.86.31,2,2,0,0,1-1.22-.44,1.55,1.55,0,0,1-.65-1.25,2,2,0,0,1,.18-.85l13.12-29.53a1.91,1.91,0,0,1,.62-.79A1.47,1.47,0,0,1,189.73,323.15Z" transform="translate(-3.99 -1.56)"/>
    <path class="cls-1" d="M174.32,323.58a2,2,0,0,1,1.18.57,1.56,1.56,0,0,1,.54,1.31,2.14,2.14,0,0,1-.27.82l-16.21,28a1.91,1.91,0,0,1-.72.72,1.53,1.53,0,0,1-.89.22,2,2,0,0,1-1.16-.56,1.53,1.53,0,0,1-.51-1.32,1.85,1.85,0,0,1,.27-.82l16.17-28a2.1,2.1,0,0,1,.7-.72A1.43,1.43,0,0,1,174.32,323.58Z" transform="translate(-3.99 -1.56)"/>
    <path class="cls-1" d="M131.55,340.7a5.54,5.54,0,0,1-3.51-2.52,6.61,6.61,0,0,1-.6-3.85l.46.48-.43.45a8.17,8.17,0,0,1-1.75,1.27,7.92,7.92,0,0,1-2.48.86,5.74,5.74,0,0,1-2.83-.21A5.92,5.92,0,0,1,117.1,335a5.49,5.49,0,0,1-.83-3.3,15.47,15.47,0,0,1,.74-4l2.7-8.54a2.12,2.12,0,0,1,1-1.27,2,2,0,0,1,1.61-.13,2,2,0,0,1,1.24,1,2.09,2.09,0,0,1,.1,1.63L121,329a7.39,7.39,0,0,0-.36,2.07,2.89,2.89,0,0,0,.51,1.73A3.37,3.37,0,0,0,123,334a4.49,4.49,0,0,0,2.33.15,3.62,3.62,0,0,0,1.79-1,4.54,4.54,0,0,0,1.07-1.84l2.7-8.55a2.15,2.15,0,0,1,1-1.27,2,2,0,0,1,1.61-.13,2,2,0,0,1,1.24,1,2.09,2.09,0,0,1,.1,1.63l-2.7,8.55a7.27,7.27,0,0,0-.36,2.07,2.86,2.86,0,0,0,.51,1.72,3.37,3.37,0,0,0,1.82,1.16,4.29,4.29,0,0,0,2.33.15,3.62,3.62,0,0,0,1.79-1,4.48,4.48,0,0,0,1.07-1.84l2.71-8.54a2.12,2.12,0,0,1,1-1.28,2.13,2.13,0,0,1,2.85.91,2.09,2.09,0,0,1,.1,1.63l-4.35,13.78a2.12,2.12,0,0,1-1,1.27,2,2,0,0,1-1.61.14,2,2,0,0,1-1.24-1,2.09,2.09,0,0,1-.1-1.63l.45-1.43.47.25a7.87,7.87,0,0,1-2.9,1.77,7.1,7.1,0,0,1-2,.38A5.92,5.92,0,0,1,131.55,340.7Z" transform="translate(-3.99 -1.56)"/>
    <path class="cls-1" d="M96.4,325.61a2,2,0,0,1-1.05-1.23,2.1,2.1,0,0,1,.18-1.62l4.09-7.9a8.22,8.22,0,0,1,4.52-4.28,7.75,7.75,0,0,1,6.25.8,7.68,7.68,0,0,1,4.24,4.64,8.22,8.22,0,0,1-.9,6.15l-4.09,7.9a2.1,2.1,0,0,1-1.23,1.08,2.13,2.13,0,0,1-2.65-1.38,2.06,2.06,0,0,1,.17-1.62l4.09-7.9a4.6,4.6,0,0,0,.63-3.24,3.61,3.61,0,0,0-2-2.21,3.68,3.68,0,0,0-3-.4,4.62,4.62,0,0,0-2.29,2.38l-4.09,7.9A2.13,2.13,0,0,1,98,325.75,1.94,1.94,0,0,1,96.4,325.61Z" transform="translate(-3.99 -1.56)"/>
    <path class="cls-1" d="M94.93,305.14a2.09,2.09,0,0,1,2.94-.63,1.93,1.93,0,0,1,.89,1.3,2.1,2.1,0,0,1-.33,1.6L86.67,325.57a2.1,2.1,0,0,1-2.94.64,1.94,1.94,0,0,1-.91-1.32,2.14,2.14,0,0,1,.35-1.59Z" transform="translate(-3.99 -1.56)"/>
    <path class="cls-1" d="M81.2,315.45l-6.56-5a1.91,1.91,0,0,1-.77-1.29,1.94,1.94,0,0,1,.41-1.45,1.77,1.77,0,0,1,1.26-.74,1.9,1.9,0,0,1,1.43.41l6.56,5a1.9,1.9,0,0,1,.36,2.74,1.81,1.81,0,0,1-1.25.74A1.91,1.91,0,0,1,81.2,315.45Zm-5.61,1.22a1.93,1.93,0,0,1-.81-1.38,2.19,2.19,0,0,1,.47-1.56l9.43-12.39a1.55,1.55,0,0,0,.34-.76,1.1,1.1,0,0,0-.14-.67,1.92,1.92,0,0,0-.48-.55,1.86,1.86,0,0,0-.71-.34,1.82,1.82,0,0,1-.73-.35,1.18,1.18,0,0,1-.43-.9,1.82,1.82,0,0,1,.45-1.25,1.84,1.84,0,0,1,1.81-.64,4.48,4.48,0,0,1,2.2.88,12.59,12.59,0,0,1,1.21,1.08,4.47,4.47,0,0,1,1,1.48,3.68,3.68,0,0,1,.16,1.95,5.84,5.84,0,0,1-1.22,2.46l-9.54,12.53a2.1,2.1,0,0,1-1.41.84A2,2,0,0,1,75.59,316.67Z" transform="translate(-3.99 -1.56)"/>
    <path class="cls-1" d="M66.45,307a2.71,2.71,0,0,1,1,1.4,1.62,1.62,0,0,1-.53,1.34l-.44.5a1.57,1.57,0,0,1-1.32.68,2.93,2.93,0,0,1-1.48-.82,2.87,2.87,0,0,1-1-1.41,1.68,1.68,0,0,1,.54-1.35l.44-.5a1.57,1.57,0,0,1,1.31-.69A3.07,3.07,0,0,1,66.45,307Zm10.88-15.55a2.17,2.17,0,0,1,1.46-.75,2,2,0,0,1,1.52.53,2,2,0,0,1,.72,1.45,2.08,2.08,0,0,1-.57,1.53L70.9,305a2.05,2.05,0,0,1-1.45.75,2.14,2.14,0,0,1-2.24-2,2.11,2.11,0,0,1,.56-1.54Z" transform="translate(-3.99 -1.56)"/>
    <path class="cls-1" d="M54.92,293a5.53,5.53,0,0,1-1.68-4,6.58,6.58,0,0,1,1.47-3.6l.15.65-.6.16a8.14,8.14,0,0,1-2.15.17,7.94,7.94,0,0,1-2.57-.54,6.79,6.79,0,0,1-4-5.24,5.45,5.45,0,0,1,1-3.25,15.1,15.1,0,0,1,2.69-3l6.75-5.9a2.09,2.09,0,0,1,1.53-.56,2.12,2.12,0,0,1,2,2.25,2.1,2.1,0,0,1-.76,1.45L52,277.55a7.2,7.2,0,0,0-1.39,1.58,2.85,2.85,0,0,0-.45,1.74,3.37,3.37,0,0,0,1,1.94A4.41,4.41,0,0,0,53,284.14a3.68,3.68,0,0,0,2,.08,4.49,4.49,0,0,0,1.87-1l6.75-5.9a2.08,2.08,0,0,1,1.53-.55,2,2,0,0,1,1.45.72,2,2,0,0,1,.52,1.53,2.15,2.15,0,0,1-.75,1.45l-6.75,5.89a7.34,7.34,0,0,0-1.38,1.58,2.82,2.82,0,0,0-.46,1.74,3.41,3.41,0,0,0,1,1.94,4.33,4.33,0,0,0,1.91,1.33,3.59,3.59,0,0,0,2.05.09,4.66,4.66,0,0,0,1.87-1l6.75-5.9a2.11,2.11,0,0,1,1.54-.56,2,2,0,0,1,1.44.73,2,2,0,0,1,.52,1.52,2.09,2.09,0,0,1-.75,1.45l-10.88,9.52a2.1,2.1,0,0,1-1.54.55,2,2,0,0,1-1.45-.72,2,2,0,0,1-.52-1.53,2.08,2.08,0,0,1,.76-1.44l1.13-1,.27.47a8.25,8.25,0,0,1-1.54.18,7.57,7.57,0,0,1-1.85-.18,7.09,7.09,0,0,1-1.89-.7A6.09,6.09,0,0,1,54.92,293Z" transform="translate(-3.99 -1.56)"/>
    <path class="cls-1" d="M51.67,256.43a10.08,10.08,0,0,1,1.63,5,8.66,8.66,0,0,1-1.13,4.62,10,10,0,0,1-3.51,3.52,10.73,10.73,0,0,1-5.24,1.73,9.08,9.08,0,0,1-4.65-1.05,8.63,8.63,0,0,1-3.29-3.08A8.1,8.1,0,0,1,34.35,264a9.28,9.28,0,0,1,.25-3.44,10,10,0,0,1,1.52-3.2,9,9,0,0,1,2.66-2.47,1.83,1.83,0,0,1,1.51-.15,2.15,2.15,0,0,1,1.21,1l7,11.32L46,269.7l-6.68-10.88,1,.29-.81.49a3.33,3.33,0,0,0-1.18,1.56,4.8,4.8,0,0,0-.25,2,4.62,4.62,0,0,0,.67,2A6.66,6.66,0,0,0,40,266.69a3.91,3.91,0,0,0,1.63.84,4.52,4.52,0,0,0,2.06,0,9,9,0,0,0,2.62-1.15A6.2,6.2,0,0,0,48.65,264a5.37,5.37,0,0,0-.15-5.36A7.84,7.84,0,0,0,47.25,257a4.72,4.72,0,0,0-1.08-.79c-.33-.16-.62-.32-.88-.46a2.74,2.74,0,0,1-.88-.84,1.75,1.75,0,0,1,.56-2.43,2.2,2.2,0,0,1,2-.07,8.17,8.17,0,0,1,2.48,1.46A10.23,10.23,0,0,1,51.67,256.43Z" transform="translate(-3.99 -1.56)"/>
    <path class="cls-1" d="M16.13,244a2.05,2.05,0,0,1-.06-1.61,2.15,2.15,0,0,1,1.17-1.16L37,232.51a2.1,2.1,0,0,1,1.63-.07,2.14,2.14,0,0,1,1.21,2.73,2.13,2.13,0,0,1-1.16,1.16l-1.56.69,0-.83a2,2,0,0,1,1.21,0,6.89,6.89,0,0,1,1.7.7,8.06,8.06,0,0,1,1.77,1.36,6.72,6.72,0,0,1,1.39,2.07,7.83,7.83,0,0,1,.62,4.48,8.69,8.69,0,0,1-1.89,4.2,10.73,10.73,0,0,1-4.14,3.06,10.89,10.89,0,0,1-5.08,1,8.77,8.77,0,0,1-4.37-1.4,7.6,7.6,0,0,1-2.85-3.38,8,8,0,0,1-.69-2.69,8.16,8.16,0,0,1,.18-2.46,6.35,6.35,0,0,1,.72-1.87,2.24,2.24,0,0,1,.9-1l.92,1-8.58,3.79a2.11,2.11,0,0,1-1.63.07A2,2,0,0,1,16.13,244Zm23.33-2.62a4.64,4.64,0,0,0-1.79-2.14,5.12,5.12,0,0,0-2.64-.79,7.23,7.23,0,0,0-5.47,2.42,5.18,5.18,0,0,0-1.2,2.48,4.63,4.63,0,0,0,.38,2.76,4.56,4.56,0,0,0,1.77,2.11,5.17,5.17,0,0,0,2.64.79,6.67,6.67,0,0,0,3-.63,6.75,6.75,0,0,0,2.46-1.79,5.07,5.07,0,0,0,1.19-2.48A4.58,4.58,0,0,0,39.46,241.4Z" transform="translate(-3.99 -1.56)"/>
    <path class="cls-1" d="M17.36,232.72a2.8,2.8,0,0,1,.16,1.7,1.67,1.67,0,0,1-1.15.89l-.63.21a1.55,1.55,0,0,1-1.48-.08,3.91,3.91,0,0,1-1-3.19,1.67,1.67,0,0,1,1.14-.89l.64-.21a1.59,1.59,0,0,1,1.47.06A3.12,3.12,0,0,1,17.36,232.72Zm17.24-7.94a2.13,2.13,0,0,1,1.63.08,2,2,0,0,1,1.05,1.23,2,2,0,0,1-.11,1.61,2.06,2.06,0,0,1-1.26,1l-13.72,4.54a2.13,2.13,0,0,1-1.63-.08,2,2,0,0,1-1-1.23,2,2,0,0,1,.11-1.61,2.06,2.06,0,0,1,1.26-1Z" transform="translate(-3.99 -1.56)"/>
    <path class="cls-1" d="M33.77,212.15a10.12,10.12,0,0,1-.05,5.28,8.51,8.51,0,0,1-2.54,4,9.93,9.93,0,0,1-4.44,2.23,10.71,10.71,0,0,1-5.52,0,9,9,0,0,1-4.07-2.47,8.36,8.36,0,0,1-2.14-4,7.79,7.79,0,0,1,0-3.43,9.27,9.27,0,0,1,1.33-3.18,9.88,9.88,0,0,1,2.45-2.55,8.9,8.9,0,0,1,3.31-1.5,1.84,1.84,0,0,1,1.48.33,2.18,2.18,0,0,1,.84,1.31l3,12.94-3.17,1.81L21.32,210.5l.85.59-.92.21a3.22,3.22,0,0,0-1.61,1.11,4.6,4.6,0,0,0-.88,1.85,4.35,4.35,0,0,0,0,2.09,6.4,6.4,0,0,0,.71,1.83,3.79,3.79,0,0,0,1.27,1.31,4.58,4.58,0,0,0,2,.61,9.06,9.06,0,0,0,2.84-.26,6.2,6.2,0,0,0,3-1.49A5.39,5.39,0,0,0,30,215.94a5.45,5.45,0,0,0,.07-2.72,8.54,8.54,0,0,0-.67-1.95,4.79,4.79,0,0,0-.77-1.09c-.27-.26-.5-.49-.69-.71a2.58,2.58,0,0,1-.57-1.08,1.7,1.7,0,0,1,.22-1.36,1.79,1.79,0,0,1,1.08-.77,2.2,2.2,0,0,1,1.89.57A7.88,7.88,0,0,1,32.45,209,10,10,0,0,1,33.77,212.15Z" transform="translate(-3.99 -1.56)"/>
    <path class="cls-1" d="M4,189.1a2,2,0,0,1,.45-1.55,2.09,2.09,0,0,1,1.48-.73l21.54-2a2.12,2.12,0,0,1,1.57.45,2,2,0,0,1,.75,1.43,2,2,0,0,1-.47,1.55,2.13,2.13,0,0,1-1.47.73l-1.7.16.24-.79a1.91,1.91,0,0,1,1.14.38,6.67,6.67,0,0,1,1.4,1.19,8.26,8.26,0,0,1,1.24,1.86,6.67,6.67,0,0,1,.67,2.4A7.91,7.91,0,0,1,30,198.6,8.83,8.83,0,0,1,26.88,202a10.65,10.65,0,0,1-4.9,1.59,10.92,10.92,0,0,1-5.14-.65,8.77,8.77,0,0,1-3.69-2.71,7.61,7.61,0,0,1-1.64-4.11,7.94,7.94,0,0,1,.2-2.78,8.16,8.16,0,0,1,.95-2.27,6.63,6.63,0,0,1,1.27-1.55,2.25,2.25,0,0,1,1.16-.61l.57,1.2L6.32,191a2.15,2.15,0,0,1-1.57-.45A2,2,0,0,1,4,189.1ZM27,194a4.74,4.74,0,0,0-1-2.59,5.06,5.06,0,0,0-2.26-1.59,6.69,6.69,0,0,0-3-.36,6.78,6.78,0,0,0-2.94.92,5.2,5.2,0,0,0-1.92,2,4.73,4.73,0,0,0-.52,2.74,4.66,4.66,0,0,0,1,2.56,5.15,5.15,0,0,0,2.25,1.58,6.71,6.71,0,0,0,3.06.36,6.7,6.7,0,0,0,2.9-.92,5.16,5.16,0,0,0,1.93-2A4.65,4.65,0,0,0,27,194Z" transform="translate(-3.99 -1.56)"/>
    <path class="cls-1" d="M30.22,172.27a10,10,0,0,1-1.44,5.08,8.58,8.58,0,0,1-3.5,3.21,9.92,9.92,0,0,1-4.87,1,10.69,10.69,0,0,1-5.32-1.47,9.09,9.09,0,0,1-3.28-3.45,8.55,8.55,0,0,1-1-4.39,7.8,7.8,0,0,1,.86-3.33,9.31,9.31,0,0,1,2.12-2.72,9.65,9.65,0,0,1,3-1.81,9.08,9.08,0,0,1,3.6-.58,1.82,1.82,0,0,1,1.33.72A2.17,2.17,0,0,1,22.2,166l-.51,13.27-3.54.91.49-12.76.67.8-.94,0a3.21,3.21,0,0,0-1.85.64,4.78,4.78,0,0,0-1.34,1.55,4.58,4.58,0,0,0-.55,2,6.56,6.56,0,0,0,.21,2,3.7,3.7,0,0,0,.88,1.6A4.58,4.58,0,0,0,17.46,177a8.91,8.91,0,0,0,2.82.5,6.2,6.2,0,0,0,3.23-.66,5.32,5.32,0,0,0,2.07-1.94,5.38,5.38,0,0,0,.79-2.6,8.25,8.25,0,0,0-.13-2.06,4.84,4.84,0,0,0-.46-1.25q-.29-.48-.48-.87A2.6,2.6,0,0,1,25,167a1.69,1.69,0,0,1,.57-1.25,1.72,1.72,0,0,1,1.24-.46,2.21,2.21,0,0,1,1.68,1,8.22,8.22,0,0,1,1.25,2.59A10,10,0,0,1,30.22,172.27Z" transform="translate(-3.99 -1.56)"/>
    <path class="cls-1" d="M27.58,162a1.91,1.91,0,0,1-1.29.11,1.68,1.68,0,0,1-1.18-1.1,1.8,1.8,0,0,1,.72-2.31,8.12,8.12,0,0,0,1.89-1.85,6.24,6.24,0,0,0,1-2.66,8.76,8.76,0,0,0,0-1.16,2.12,2.12,0,0,0-.38-1.17,1.77,1.77,0,0,0-1.26-.68,1.52,1.52,0,0,0-1.29.33,4.44,4.44,0,0,0-1,1.24c-.29.52-.59,1.12-.88,1.77s-.66,1.37-1,2.08a9.91,9.91,0,0,1-1.31,1.89,4.78,4.78,0,0,1-1.85,1.25,4.93,4.93,0,0,1-2.61.19,4.59,4.59,0,0,1-2.79-1.43,6.22,6.22,0,0,1-1.47-2.78,8.07,8.07,0,0,1-.15-3.32,10,10,0,0,1,.61-2.19,8.7,8.7,0,0,1,1.18-2.1,5.61,5.61,0,0,1,1.78-1.55,2.5,2.5,0,0,1,1.32-.25,1.52,1.52,0,0,1,1.21.86,1.67,1.67,0,0,1,.17,1.26,1.8,1.8,0,0,1-.64,1.06,4.13,4.13,0,0,0-1.46,1.37,5.4,5.4,0,0,0-.8,2.18,5.17,5.17,0,0,0-.06,1.14,2.19,2.19,0,0,0,.36,1.12,1.6,1.6,0,0,0,1.19.65,1.66,1.66,0,0,0,1.34-.31,4.07,4.07,0,0,0,1-1.28c.29-.55.58-1.14.87-1.78s.62-1.32,1-2a8.85,8.85,0,0,1,1.31-1.8,4.84,4.84,0,0,1,1.84-1.19,5.19,5.19,0,0,1,2.59-.15,4.57,4.57,0,0,1,2.85,1.5,6.71,6.71,0,0,1,1.48,2.88A8.35,8.35,0,0,1,32,155.1,12.71,12.71,0,0,1,30.62,159,7.09,7.09,0,0,1,27.58,162Z" transform="translate(-3.99 -1.56)"/>
    <path class="cls-1" d="M13.49,138.69a2.71,2.71,0,0,1-.76,1.53,1.65,1.65,0,0,1-1.44.16l-.65-.16a1.57,1.57,0,0,1-1.22-.85,3,3,0,0,1,0-1.69,2.82,2.82,0,0,1,.78-1.57,1.67,1.67,0,0,1,1.44-.15l.65.16a1.59,1.59,0,0,1,1.22.83A3,3,0,0,1,13.49,138.69Zm18.84,2.37a2.08,2.08,0,0,1,1.34.93,2,2,0,0,1,.25,1.6,2,2,0,0,1-1,1.31,2.11,2.11,0,0,1-1.62.21l-14-3.39a2.08,2.08,0,0,1-1.34-.93,2,2,0,0,1-.25-1.6,2,2,0,0,1,.95-1.31,2.11,2.11,0,0,1,1.62-.22Z" transform="translate(-3.99 -1.56)"/>
    <path class="cls-1" d="M19.6,124.53a7.73,7.73,0,0,1,3.09-4,6.69,6.69,0,0,1,1.79-.85,2.26,2.26,0,0,1,1.31-.08l.13,1-2.41-.84a2.1,2.1,0,0,1-1.24-1,2,2,0,0,1-.09-1.62,2.06,2.06,0,0,1,1.05-1.22,2.13,2.13,0,0,1,1.65,0L39.59,121a8.22,8.22,0,0,1,4.18,2.83,7.28,7.28,0,0,1,1.39,4.11,12.18,12.18,0,0,1-.72,4.57,11.88,11.88,0,0,1-.75,1.65c-.36.67-.72,1.29-1.1,1.87a11.74,11.74,0,0,1-.93,1.3,3.08,3.08,0,0,1-1.55,1,1.73,1.73,0,0,1-1.42-.33,2.21,2.21,0,0,1-1-1.41,1.74,1.74,0,0,1,.4-1.41c.14-.19.4-.51.77-.94s.75-.93,1.13-1.47a6.77,6.77,0,0,0,.8-1.51,5.9,5.9,0,0,0,.27-4,3.57,3.57,0,0,0-2.33-2.14l-2.88-1,.44-.29a2,2,0,0,1,.89.81,6.51,6.51,0,0,1,.78,1.63,7.7,7.7,0,0,1,.37,2.18,6.11,6.11,0,0,1-.36,2.37,8.24,8.24,0,0,1-2.63,3.8,8.7,8.7,0,0,1-4.27,1.83,10.7,10.7,0,0,1-5.12-.57,10.59,10.59,0,0,1-4.4-2.74A8.85,8.85,0,0,1,19.34,129,7.91,7.91,0,0,1,19.6,124.53Zm3.85.64a4.88,4.88,0,0,0-.17,2.84,5.11,5.11,0,0,0,1.37,2.43,7.08,7.08,0,0,0,5.66,2,5.36,5.36,0,0,0,2.59-1A5,5,0,0,0,34.53,129a5,5,0,0,0,.18-2.89,5.14,5.14,0,0,0-1.38-2.43,6.61,6.61,0,0,0-2.59-1.6,6.71,6.71,0,0,0-3.06-.36,5.27,5.27,0,0,0-2.59,1.05A5,5,0,0,0,23.45,125.17Z" transform="translate(-3.99 -1.56)"/>
    <path class="cls-1" d="M29.92,100.47a6,6,0,0,1,2.74-3,5.47,5.47,0,0,1,3.41-.33,14.87,14.87,0,0,1,3.8,1.38l8,4.07a2.17,2.17,0,0,1,1.09,1.22,2.16,2.16,0,0,1-1.36,2.67,2.12,2.12,0,0,1-1.63-.17l-8-4.08a6.62,6.62,0,0,0-2-.68,2.79,2.79,0,0,0-1.8.27,3.57,3.57,0,0,0-1.5,1.69,4.64,4.64,0,0,0-.57,2.35,3.77,3.77,0,0,0,.66,2,4.3,4.3,0,0,0,1.63,1.4l8,4.08a2.07,2.07,0,0,1,1.09,1.22,2,2,0,0,1-.13,1.61,2,2,0,0,1-1.23,1,2.09,2.09,0,0,1-1.63-.17L27.6,110.46a2.11,2.11,0,0,1-1.08-1.22,2,2,0,0,1,.13-1.61,2,2,0,0,1,1.23-1.06,2.1,2.1,0,0,1,1.62.17l1.34.68-.33.42a6.54,6.54,0,0,1-.72-1.38,8.47,8.47,0,0,1-.51-1.83,6.94,6.94,0,0,1,0-2A6.15,6.15,0,0,1,29.92,100.47Z" transform="translate(-3.99 -1.56)"/>
    <path class="cls-1" d="M56.86,93.49A10.15,10.15,0,0,1,52.92,97a8.54,8.54,0,0,1-4.67.83,9.93,9.93,0,0,1-4.64-1.79A10.62,10.62,0,0,1,39.91,92,9,9,0,0,1,39,87.28,8.49,8.49,0,0,1,40.48,83,7.8,7.8,0,0,1,43,80.69a9.06,9.06,0,0,1,3.24-1.16,9.54,9.54,0,0,1,3.53.09,8.88,8.88,0,0,1,3.35,1.44,1.81,1.81,0,0,1,.74,1.32,2.19,2.19,0,0,1-.39,1.5L45.91,94.81l-3.47-1.13,7.25-10.5.14,1-.78-.54a3.16,3.16,0,0,0-1.9-.45,4.74,4.74,0,0,0-2,.59,4.65,4.65,0,0,0-1.55,1.41A6.7,6.7,0,0,0,42.77,87a3.63,3.63,0,0,0-.11,1.82,4.54,4.54,0,0,0,.87,1.88,9,9,0,0,0,2.12,1.92,6.14,6.14,0,0,0,3.08,1.18,5.31,5.31,0,0,0,2.79-.53,5.4,5.4,0,0,0,2-1.77,7.8,7.8,0,0,0,1-1.81,4.61,4.61,0,0,0,.29-1.3q0-.56.06-1a2.75,2.75,0,0,1,.42-1.16,1.76,1.76,0,0,1,2.44-.46,2.17,2.17,0,0,1,.86,1.77,8.12,8.12,0,0,1-.33,2.86A10,10,0,0,1,56.86,93.49Z" transform="translate(-3.99 -1.56)"/>
    <path class="cls-1" d="M64.44,83a2,2,0,0,1-1.45.72,2.06,2.06,0,0,1-1.53-.55l-10.9-9.5a2.14,2.14,0,0,1-.76-1.45,2,2,0,0,1,.53-1.53,2,2,0,0,1,1.44-.72,2.1,2.1,0,0,1,1.54.55l2.48,2.16-1.93-1.35a5.37,5.37,0,0,1-.47-1.73,6,6,0,0,1,.08-1.75,6.5,6.5,0,0,1,.59-1.65,7.42,7.42,0,0,1,1-1.45,2.56,2.56,0,0,1,1.6-.93,1.77,1.77,0,0,1,1.52.38A2.1,2.1,0,0,1,59,65.69a1.94,1.94,0,0,1-.47,1.3,2.82,2.82,0,0,1-1,.74,3.09,3.09,0,0,0-1,.77A3.24,3.24,0,0,0,56,69.65a3.59,3.59,0,0,0-.08,1.51,4.93,4.93,0,0,0,.61,1.67A6.22,6.22,0,0,0,58,74.52L64.2,80A2.12,2.12,0,0,1,65,81.42,2,2,0,0,1,64.44,83Z" transform="translate(-3.99 -1.56)"/>
  </g>
</svg>
