<svg id="Layer_1" data-name="Layer 1" xmlns="http://www.w3.org/2000/svg" width="1240.14" height="158.34" viewBox="0 0 1240.14 158.34">
  <defs>
    <style>
      .cls-1 {
        fill: #1d1d1b;
      }
    </style>
  </defs>
  <path class="cls-1" d="M-509.62-36c3.22,0,3.23-5,0-5s-3.22,5,0,5Z" transform="translate(512.03 40.96)"/>
  <path class="cls-1" d="M70.47,30.74C59.35,23.14,44,24.47,33,31.77A31.06,31.06,0,0,0,20.89,46.82c-1.5,4.14-2.14,8.94,0,13a13.79,13.79,0,0,0,8,6.37c9.56,3.19,18.47-3,25.15-9.25a1.26,1.26,0,0,0-.89-2.13c-12.84.13-24.76,7.8-31.34,18.66s-7.37,25.39.58,35.75a20,20,0,0,0,16.2,8.16c6.49-.12,12.55-3.35,17.21-7.7C67.45,98.79,68.3,82.12,70.45,67.33c.48-3.26.84-6.75,2.46-9.69s4.51-4.21,7.34-2,4.68,6.06,6.17,9.27a45.81,45.81,0,0,1,4.19,17.31l2.46-.33c-3.21-9.08.5-20.5,9.11-25.27,2.33-1.29,5.33-1.83,7,.72,1.39,2.11,1.51,4.93,1.8,7.36q1.23,10.14,2.35,20.29,1.29,11.64,2.42,23.29a1.26,1.26,0,0,0,2.33.63,82.84,82.84,0,0,0,14.76-43.72A80.29,80.29,0,0,0,132.31,52c-.19-1.55-2.59-1.64-2.5,0a247.75,247.75,0,0,0,7.8,48.94,1.26,1.26,0,0,0,1.84.74c6.91-4.57,10.93-12.05,12.9-19.94,2.37-9.52,1.7-19.31,1.51-29a81,81,0,0,1,1.32-18.52l-2.46-.33L155,90.42l.64,16.21a1.26,1.26,0,0,0,2.33.63,105.72,105.72,0,0,0,12.28-50.64,1.25,1.25,0,0,0-2.5,0c-.66,12.53-1.12,26.25,6.1,37.16a1.28,1.28,0,0,0,1.71.45,41.29,41.29,0,0,0,20-36.55,1.27,1.27,0,0,0-2.13-.89c-9.13,7.52-11.94,21.11-6.26,31.52,5.14,9.4,16.77,16,27.32,11.87,4.9-1.9,9.08-6,8.89-11.55,0-1.6-2.55-1.61-2.5,0,.15,4.3-3,7.44-6.76,9a17,17,0,0,1-12.83,0A23,23,0,0,1,186.85,73.5a23.61,23.61,0,0,1,8.31-14.94L193,57.68a38.76,38.76,0,0,1-18.77,34.39l1.71.45c-7-10.54-6.4-23.81-5.76-35.9h-2.5A103,103,0,0,1,155.77,106l2.33.63L155.86,50l-.64-16.2c-.05-1.35-2.15-1.77-2.45-.33-4,18.42,3,38.73-6,56.13a25.93,25.93,0,0,1-8.6,9.87l1.83.74A244.8,244.8,0,0,1,132.31,52h-2.5a79.74,79.74,0,0,1-13.88,55.7l2.33.63c-1.49-15.31-3.07-30.63-5.05-45.89-.33-2.53-.83-5.22-2.53-7.22-1.91-2.24-4.92-2.6-7.6-1.68C97.9,55.3,93.76,60.12,91.58,65a23.89,23.89,0,0,0-.92,17.57c.44,1.25,2.52,1.15,2.45-.34A49.17,49.17,0,0,0,86.9,60.4c-1.62-2.88-3.59-6.2-6.68-7.7a6.69,6.69,0,0,0-7.91,1.51A15.86,15.86,0,0,0,68.79,62c-.73,3.75-1.16,7.57-1.66,11.35-1,7.82-2.14,15.79-5.22,23.11-4.69,11.15-18.07,22.94-30.83,16.77-11.74-5.68-14.1-21.39-10-32.57,4.27-11.67,15.07-20.94,27.36-23a31.09,31.09,0,0,1,4.72-.39l-.88-2.13c-5.42,5.06-12.54,10.59-20.46,9.18a12.5,12.5,0,0,1-8.12-4.71c-2.44-3.48-1.85-7.92-.54-11.72C27,36.61,38.71,29.26,50.3,28.25A28.82,28.82,0,0,1,69.21,32.9c1.33.91,2.58-1.25,1.26-2.16Z" transform="translate(512.03 40.96)"/>
  <path class="cls-1" d="M248.22,17.78A124.39,124.39,0,0,1,245,85.26a120.76,120.76,0,0,1-7.66,17.95c-.74,1.42,1.41,2.68,2.16,1.26a126.76,126.76,0,0,0,14.09-67.84,125.07,125.07,0,0,0-3-19.52c-.37-1.56-2.78-.9-2.41.67Z" transform="translate(512.03 40.96)"/>
  <path class="cls-1" d="M253.85,62.79a1.25,1.25,0,0,0,0-2.5,1.25,1.25,0,0,0,0,2.5Z" transform="translate(512.03 40.96)"/>
  <path class="cls-1" d="M254.4,62.48a88,88,0,0,0,27.82-25c.95-1.31-1.22-2.56-2.16-1.26a85.16,85.16,0,0,1-26.92,24.14,1.25,1.25,0,0,0,1.26,2.16Z" transform="translate(512.03 40.96)"/>
  <path class="cls-1" d="M253.61,59.66A50.09,50.09,0,0,0,256,76.32c1.61,5,3.89,10.36,7.66,14.08,3.21,3.18,8.19,5.21,12,1.84a13.65,13.65,0,0,0,3.46-6c1-2.8,1.82-5.65,2.63-8.51a181.82,181.82,0,0,0,4.48-20.27l-2.46-.33a101.45,101.45,0,0,0,.69,27.24q.24,1.53.54,3.06c.18.94.22,2.46.81,3.23.9,1.16,3.32,1.56,4.68,1.73a12.09,12.09,0,0,0,9.37-2.84c5.44-4.77,4.76-12.84,5.39-19.36.33-3.49,1.14-7.21,3.6-9.86,2.19-2.38,5.57-3.26,8.42-1.46a4.38,4.38,0,0,1,2.06,4c0,1.6.1,3.67,1.71,4.54,2.79,1.51,5.48-3.63,2.32-4.1-1.58-.23-2.26,2.18-.67,2.42.54.07.32-.49-.35-.83-.11,0,0,.4-.21.21,0,0-.12.09-.14.07.65.4.07-.13.05-.3-.12-1.06-.16-2.14-.27-3.21a6.61,6.61,0,0,0-3-4.77,9,9,0,0,0-11.19,1.17c-3.53,3.32-4.52,8.26-4.91,12.88s-.09,9.5-2.15,13.64a9.55,9.55,0,0,1-13.11,4.25l.58.75a99.62,99.62,0,0,1-1.73-32.44c.16-1.39-2.23-1.72-2.45-.33q-1.3,8-3.31,15.89-1,3.93-2.18,7.82a53.91,53.91,0,0,1-2.38,7c-.85,1.85-2.18,3.7-4.36,4s-4.14-1-5.63-2.33c-3.61-3.23-5.76-8.17-7.31-12.68a47.88,47.88,0,0,1-2.56-16.83c.05-1.61-2.45-1.61-2.5,0Z" transform="translate(512.03 40.96)"/>
  <path class="cls-1" d="M335.87,23.08l-.25-5.17c-.08-1.6-2.57-1.62-2.5,0A321.24,321.24,0,0,1,329,83.61q-1.55,9.23-3.63,18.34c-.35,1.57,2.06,2.23,2.42.66a324.38,324.38,0,0,0,8.05-65.77q.18-9.47-.19-18.93h-2.5l.25,5.17c.07,1.6,2.57,1.61,2.5,0Z" transform="translate(512.03 40.96)"/>
  <path class="cls-1" d="M334.94,72.34a38.75,38.75,0,0,0,22.14-17.73,1.25,1.25,0,0,0-2.16-1.27,36.14,36.14,0,0,1-20.64,16.59c-1.53.48-.88,2.89.66,2.41Z" transform="translate(512.03 40.96)"/>
  <path class="cls-1" d="M332.72,70.41a75.06,75.06,0,0,0,32,26.78c1.46.64,2.73-1.51,1.26-2.15a72.77,72.77,0,0,1-31.15-25.9c-.89-1.32-3.06-.07-2.16,1.27Z" transform="translate(512.03 40.96)"/>
  <path class="cls-1" d="M375,68.56h9.62a1.25,1.25,0,0,0,0-2.5H375a1.25,1.25,0,0,0,0,2.5Z" transform="translate(512.03 40.96)"/>
  <path class="cls-1" d="M395.76,101.72C412.94,88.31,418,65.6,418.55,44.91c.2-6.93,0-13.87-.21-20.81l-2.46.34a134.46,134.46,0,0,1,5.92,39.94c0,6.39-1,12.8-.75,19.19.2,5.43,1.59,11,5.72,14.75,3.85,3.52,9.57,5.33,14.34,2.54a1.25,1.25,0,0,0-1.26-2.16c-4,2.34-8.77.41-11.8-2.62-3.86-3.86-4.58-9.51-4.53-14.73.07-6.14.82-12.25.78-18.4a138.8,138.8,0,0,0-1.36-18.33,136.5,136.5,0,0,0-4.65-20.85,1.25,1.25,0,0,0-2.45.33c.65,21.59,1.19,44.83-10.9,63.75A48.71,48.71,0,0,1,394,100c-1.27,1,.51,2.75,1.76,1.77Z" transform="translate(512.03 40.96)"/>
  <path class="cls-1" d="M409.61,71.11a40.21,40.21,0,0,1,36-9.84l-.92-1.21.19,37.51a1.25,1.25,0,0,0,2.5,0,119.84,119.84,0,0,1,3.76-29.26c1-3.8,2.43-8.05,5.82-10.39,3.09-2.14,7.26-2.37,9.74.81s2.91,7.81,3.2,11.64a67.51,67.51,0,0,1-.83,14.2c-.49,3.69-.47,8,2.74,10.5,2.21,1.71,5.73,2.41,7.9.24,1.12-1.12.95-3.21,1.17-4.7.24-1.65.52-3.3.85-4.94a60.88,60.88,0,0,1,2.74-9.82c2.19-5.74,5.82-11.42,11.68-13.91,6.4-2.73,13.57-.57,18.25,4.37a15.68,15.68,0,0,1,2.13,19.2c-3.66,6.06-10.94,10.16-18.09,8.82a19.72,19.72,0,0,1-14.88-14,17.37,17.37,0,0,1-.62-5.22,1.25,1.25,0,0,0-2.5,0,22.15,22.15,0,0,0,16.31,21.45c9.55,2.37,19.53-3.5,23.26-12.38,3.83-9.14-.72-19.26-9.3-23.73a18.06,18.06,0,0,0-13.2-1.59,20.28,20.28,0,0,0-10.1,6.77C481,73.44,479.11,84.2,478,94l.37-.88c-1.54,2-4.47.87-5.8-.82-2.09-2.63-1.06-6.82-.61-9.83a53.79,53.79,0,0,0,.53-11.62,35.7,35.7,0,0,0-1.73-9.79c-1-2.7-2.62-5.28-5.32-6.51a9.61,9.61,0,0,0-8.1.32c-6.22,2.92-8,10.24-9.4,16.35a125.69,125.69,0,0,0-3,26.36h2.5l-.19-37.51a1.26,1.26,0,0,0-.92-1.2,42.82,42.82,0,0,0-38.47,10.48c-1.17,1.11.6,2.87,1.77,1.77Z" transform="translate(512.03 40.96)"/>
  <path class="cls-1" d="M514.14,71.08q3.76-28.66,4.77-57.61c.05-1.61-2.45-1.6-2.5,0q-1,28.91-4.77,57.61c-.21,1.59,2.29,1.57,2.5,0Z" transform="translate(512.03 40.96)"/>
  <path class="cls-1" d="M515.3,67.44a38.63,38.63,0,0,0,12.94,1c3.31-.31,7.34-.79,9.84-3.25a4.88,4.88,0,0,0-.23-7.35,6.73,6.73,0,0,0-8-.42c-2.84,1.9-4.26,5.25-5.1,8.44a30.71,30.71,0,0,0-.92,9.92c.46,6.44,2.94,12.9,7.74,17.36,8.29,7.71,24.08,7.23,30-3.32,4-7.12,1.78-15.5.83-23.08-.72-5.69-.4-12.76,3.88-17.12a8.84,8.84,0,0,1,7.27-2.61,13.58,13.58,0,0,1,6.7,3.19c4.49,3.57,8,8.24,12.93,11.33a19.92,19.92,0,0,0,3.76,1.86c1.36.51,2.15-1.57,1-2.28-5.5-3.28-13.4-4.88-19.32-1.72A8.41,8.41,0,0,0,574,66.15a10.93,10.93,0,0,0,2.75,7.42,20.94,20.94,0,0,0,7.3,5.69c2.59,1.23,5.28,2.26,7.8,3.65,4,2.22,8.74,6.6,6,11.59-2.26,4.12-8.72,6.93-12.59,3.33l-.25,2a185.58,185.58,0,0,0,34.6-28.05q4.47-4.63,8.61-9.58l-2.09-1.22-5.75,14.7c-.71,1.81-1.48,3.75-1.17,5.74A4.26,4.26,0,0,0,622.73,85c2,.36,4.2-.2,6.15-.63a48.47,48.47,0,0,0,6.48-1.87,51.47,51.47,0,0,0,11.86-6.12c3.44-2.4,6.47-5.88,10.42-7.46,4.58-1.84,8.75.9,12.57,3.2a97.3,97.3,0,0,0,25.6,10.74,97.63,97.63,0,0,0,31.1,2.94c1.6-.11,1.61-2.61,0-2.5A95.47,95.47,0,0,1,675.08,72c-3.75-2-7.37-4.93-11.58-5.92s-7.87.62-11.15,3.1-6.45,5.28-10.13,7.39a48.77,48.77,0,0,1-12,4.88c-2.08.55-4.69,1.42-6.85,1.12-2.56-.36-1.7-3.33-1.09-5,2-5.35,4.17-10.63,6.25-15.94.45-1.15-1.31-2.15-2.09-1.22a183.11,183.11,0,0,1-32.23,30.15q-5.12,3.72-10.49,7.09a1.27,1.27,0,0,0-.25,2c3.58,3.32,8.93,2.84,12.76.19,4-2.78,6.12-7.55,4-12.2-2.38-5.18-8.22-7.49-13.09-9.65a22.93,22.93,0,0,1-7.67-5c-1.89-2-3.64-4.87-2.8-7.72,1-3.39,4.82-4.66,8-4.86a20.77,20.77,0,0,1,11.91,3l1-2.29C592.66,59.19,589,55,585.29,51.4c-3.43-3.27-7.43-6.74-12.42-6.89-5.5-.16-9.62,3.65-11.59,8.5-2.32,5.72-1.74,11.68-.86,17.62,1,6.56,2.3,14.55-2.44,20-3.38,3.91-8.71,5.57-13.76,5.29a17.75,17.75,0,0,1-13.82-8,26.33,26.33,0,0,1-4-17.33,20.69,20.69,0,0,1,2.71-8.86c1.49-2.35,4.4-4,7-2.1a2.32,2.32,0,0,1,.77,3.08A5.74,5.74,0,0,1,533.54,65a30.3,30.3,0,0,1-11.41,1A35.52,35.52,0,0,1,516,65c-1.56-.39-2.23,2-.67,2.41Z" transform="translate(512.03 40.96)"/>
</svg>
