<svg id="Layer_1" data-name="Layer 1" xmlns="http://www.w3.org/2000/svg" width="373.94" height="87.24" viewBox="0 0 373.94 87.24">
  <defs>
    <style>
      .cls-1 {
        fill: #1d1d1b;
      }
    </style>
  </defs>
  <path class="cls-1" d="M45.13,35.31c-3.14-2.16-6.75-3.4-10.57-2.63a14.76,14.76,0,0,0-9.07,6.14c-3.88,5.54-5,14.42.53,19.32,3.15,2.78,7.38,3.4,11.41,3.74,1.41.12,1.7-2.14.34-2.46a16.88,16.88,0,0,0-15.31,4.41C18.1,67.93,16,73.9,15.9,79.8c-.13,5.72,1.59,11.93,5.89,15.93,3.87,3.6,9.57,5.1,14.54,3,7.07-3,9.35-12,11-18.72,1-4.06,1.72-8.17,2.48-12.27a94.07,94.07,0,0,1,2.1-9.84c.15-.49.43-1.33.54-1.58a6.18,6.18,0,0,1,.36-.73c.06-.1.42-.66.23-.39,0-.07.45-.46.15-.18.19-.17,0-.15.18-.08-.4-.12,0,.09,0,.14a5.9,5.9,0,0,1,1.21,2.36,33.23,33.23,0,0,1,1.12,4.39,78.63,78.63,0,0,1,1.21,9.55,1.25,1.25,0,0,0,2.5,0,48.92,48.92,0,0,1,2.13-10.5c.47-1.46,2.36-5.73,4-2.87,1.35,2.4,1,5.7,1.15,8.34l.44,11.27a29.16,29.16,0,0,0,1.06,7.72c.63,2,1.69,4.25,3.75,5.07,2.28.91,4.4-.42,5.77-2.21a34,34,0,0,0,4.25-8.42A62,62,0,0,0,86,57.69h-2.5l0,21.83c0,1.79,0,3.58,0,5.36A8.18,8.18,0,0,0,84.42,89a3.45,3.45,0,0,0,5.33.91c2.1-1.58,3.24-4.11,4-6.56q1.44-4.77,2.39-9.67a108.46,108.46,0,0,0,2-19.93A108.34,108.34,0,0,0,95.9,31.06a1.26,1.26,0,0,0-2.46.33L95.6,68.54c.18,3.07.35,6.15.54,9.22a13.85,13.85,0,0,0,1.48,6.13c.82,1.41,2.25,2.45,3.94,2,2.24-.65,3.09-3.51,3.81-5.43a55.45,55.45,0,0,0,3.42-18.77,1.25,1.25,0,0,0-2.5,0l-.48,9.71a60.25,60.25,0,0,0-.29,8.7c.17,1.85.73,4.07,2.66,4.82s4-.52,5.42-1.88c2.19-2.17,3.54-5.16,4.66-8A50.13,50.13,0,0,0,121,65.24c.36-2.11.91-4.76.19-6.86a2.08,2.08,0,0,0-1.94-1.55c-1.47,0-2.41,1.6-3,2.73-2.36,4.26-2.66,9.76-2.85,14.53s.53,10.27,4.17,13.62c3.88,3.58,9.73,3,13.55-.38,4.41-3.86,6.11-10.11,6.66-15.73.16-1.6-2.34-1.59-2.5,0-.42,4.32-1.61,8.94-4.4,12.37-2.32,2.86-6.24,4.75-9.84,3.1-3.77-1.72-4.91-6.43-5.12-10.19a42.57,42.57,0,0,1,1.21-12.67,15.23,15.23,0,0,1,1-2.78c.36-.74.93-1.37,1.3-2.06.09-.18.06,0-.35-.11-.1,0-.13-.12-.2-.15s0,0,0,0a17.61,17.61,0,0,1-.15,5c-.84,5.24-2.44,10.83-5.38,15.29a9.42,9.42,0,0,1-2.15,2.43c-.86.64-2,1.25-2.67,0A6.53,6.53,0,0,1,108,79c0-2.78.24-5.61.38-8.39l.45-9h-2.5a54,54,0,0,1-2.24,14.89c-.35,1.15-.74,2.3-1.17,3.42a9.46,9.46,0,0,1-1.51,3.09c-1.23,1.34-2-1.29-2.27-2.17A33.53,33.53,0,0,1,98.42,74L98,66,97,49.84,95.94,31.39l-2.45.33a105.56,105.56,0,0,1,1.12,35.85c-.41,2.93-1,5.85-1.62,8.74a46,46,0,0,1-2.32,8.23c-.44,1-2.34,4.62-3.81,3.53-.93-.7-.76-2.58-.77-3.59,0-1.65,0-3.31,0-5l0-21.83a1.25,1.25,0,0,0-2.5,0,60.08,60.08,0,0,1-3.49,20A37.14,37.14,0,0,1,76,86.33c-.6.86-1.55,2-2.74,1.88-1-.12-1.56-1.07-2-1.83a16.92,16.92,0,0,1-1.59-7c-.2-3.7-.29-7.4-.43-11.1-.12-3,0-6.12-.66-9.06-.47-2.06-1.62-4.55-4-4.72-2.93-.22-4.51,3-5.31,5.34a50.26,50.26,0,0,0-2.33,11.51h2.5c-.36-5.14-.82-10.79-2.79-15.6-.79-1.94-2.87-4.61-5.08-2.63-1.57,1.4-2.07,4-2.55,5.92-.83,3.41-1.4,6.88-2,10.33-.73,3.92-1.49,7.84-2.5,11.7a42.11,42.11,0,0,1-3.82,10.28c-1.92,3.36-5,5.78-9,5.83-5.64.07-10.14-4.2-12-9.28a22.45,22.45,0,0,1,1.71-18.86c3.27-5.28,9.49-8.67,15.72-7.24l.33-2.45c-2.91-.25-6-.61-8.52-2.19a9.16,9.16,0,0,1-4.18-7.36c-.35-5.95,3.19-12.32,9-14.32,3.67-1.27,7.09-.17,10.17,2,1.33.91,2.58-1.26,1.27-2.16Z" transform="translate(-15.89 -12.45)"/>
  <path class="cls-1" d="M104.79,50.43a1.25,1.25,0,0,0,0-2.5,1.25,1.25,0,0,0,0,2.5Z" transform="translate(-15.89 -12.45)"/>
  <path class="cls-1" d="M83,50.43a1.25,1.25,0,0,0,0-2.5,1.25,1.25,0,0,0,0,2.5Z" transform="translate(-15.89 -12.45)"/>
  <path class="cls-1" d="M148.93,13.65A231.94,231.94,0,0,1,146,76.94q-1.6,8.88-3.78,17.62a1.25,1.25,0,0,0,2.41.67,252.33,252.33,0,0,0,7.75-63.5q-.1-9.06-1-18.08c-.15-1.59-2.66-1.61-2.5,0Z" transform="translate(-15.89 -12.45)"/>
  <path class="cls-1" d="M150.05,62.41c7.93,0,14.5-6.22,16.73-13.51.48-1.54-1.94-2.2-2.41-.67-1.9,6.24-7.51,11.72-14.32,11.68a1.25,1.25,0,0,0,0,2.5Z" transform="translate(-15.89 -12.45)"/>
  <path class="cls-1" d="M150.78,63.43c3.4.55,5.09,4.33,6,7.26,1.12,3.43,1.72,7.16,3.72,10.23,1.78,2.75,5.56,5.44,8.63,2.85a8.6,8.6,0,0,0,2.39-4.25A54.29,54.29,0,0,0,173,73.09,69.61,69.61,0,0,0,173.87,58a1.25,1.25,0,0,0-2.5,0,29.45,29.45,0,0,0,1,12.55A28.11,28.11,0,0,0,174.77,76a13.68,13.68,0,0,0,3.62,4.6c3.06,2.12,5.66-.65,6.54-3.49,1.2-3.86.58-8.22.5-12.19,0-1.47-.71-5.58,1.48-5.91,1.89-.28,3.94,1.82,5.06,3.07s2.83-.57,1.77-1.76c-1.88-2.11-5.38-4.93-8.38-3.41a5,5,0,0,0-2.43,4.25A56.75,56.75,0,0,0,183,67.8,50,50,0,0,1,183,74a8,8,0,0,1-1.4,4.25c-2.21,2.52-5.61-5.24-6.18-6.71A27.57,27.57,0,0,1,173.87,58h-2.5a67.55,67.55,0,0,1-.45,12.23c-.27,2.06-.65,4.1-1.12,6.13a14.17,14.17,0,0,1-1.69,4.92c-2.46,3.5-5.87-2-6.7-4.14-1.22-3.1-1.75-6.42-3.09-9.47s-3.47-6.07-6.88-6.62c-1.57-.25-2.25,2.16-.66,2.41Z" transform="translate(-15.89 -12.45)"/>
  <path class="cls-1" d="M191.83,28.34q2.83,26.4,3.13,53a1.25,1.25,0,0,0,2.5,0q-.3-26.55-3.13-53c-.17-1.59-2.67-1.6-2.5,0Z" transform="translate(-15.89 -12.45)"/>
  <path class="cls-1" d="M196.63,63l15.68-9a1.25,1.25,0,0,0-1.26-2.15l-15.68,9A1.25,1.25,0,0,0,196.63,63Z" transform="translate(-15.89 -12.45)"/>
  <path class="cls-1" d="M195.2,63.07a171.2,171.2,0,0,1,20.62,21.35c1,1.25,2.78-.53,1.77-1.77A170.43,170.43,0,0,0,197,61.31c-1.21-1.05-3,.71-1.77,1.76Z" transform="translate(-15.89 -12.45)"/>
  <path class="cls-1" d="M171.6,49.87a1.25,1.25,0,0,0,0-2.5,1.25,1.25,0,0,0,0,2.5Z" transform="translate(-15.89 -12.45)"/>
  <path class="cls-1" d="M211.78,65.09a21.64,21.64,0,0,1,10.13.94,1.27,1.27,0,0,0,1.54-.87,1.28,1.28,0,0,0-.88-1.54,24.31,24.31,0,0,0-11.45-.94,1.26,1.26,0,0,0-.88,1.54,1.29,1.29,0,0,0,1.54.87Z" transform="translate(-15.89 -12.45)"/>
  <path class="cls-1" d="M226.24,88.86c3.84-20.49,7.65-41.09,8.08-62h-2.5l2,29.09q.48,7.17,1,14.35a104.41,104.41,0,0,0,1.5,13.19,36.58,36.58,0,0,0,5.3,13.31c.89,1.33,3.06.08,2.16-1.26-4.89-7.31-5.82-16-6.41-24.56q-1-14-1.9-28l-1.09-16.16a1.25,1.25,0,0,0-2.5,0c-.43,20.68-4.19,41.05-8,61.32-.29,1.58,2.12,2.25,2.41.67Z" transform="translate(-15.89 -12.45)"/>
  <path class="cls-1" d="M225.76,63a29.3,29.3,0,0,0,19.62-2.23l-1.88-1.08a73.11,73.11,0,0,0,2.78,26.84,1.25,1.25,0,0,0,2.45-.33,52.35,52.35,0,0,1,1.51-11.29c.84-3.35,2.11-7.27,4.92-9.5a5.66,5.66,0,0,1,4-1.31c1.26.16,1.86,1.48,2.2,2.57,1.19,3.87.75,8.27.59,12.25-.08,2.07-.5,4.48.28,6.46a12.13,12.13,0,0,0,4.5,5.6c1.36.86,2.61-1.3,1.26-2.16-1.62-1-3.52-3.35-3.67-5.32a58.54,58.54,0,0,1,.21-6.48c.13-4,.5-8.87-1.39-12.6a4.79,4.79,0,0,0-3.73-2.81,8.23,8.23,0,0,0-5,1.29c-3.23,2.11-4.94,5.94-6,9.5a52.78,52.78,0,0,0-2.11,13.8l2.46-.34A71,71,0,0,1,246,59.64c.09-1-1.1-1.46-1.88-1.08a26.5,26.5,0,0,1-17.69,2c-1.57-.37-2.24,2-.67,2.41Z" transform="translate(-15.89 -12.45)"/>
  <path class="cls-1" d="M284.42,30.74A241.74,241.74,0,0,0,279.71,81c0,2.19.17,4.39.14,6.59,0,1.39,0,3.45-1.47,4.16s-.17,2.88,1.26,2.16c2.87-1.44,2.76-5.32,2.68-8.06q-.21-6.55-.06-13.11a237.68,237.68,0,0,1,2.08-26.51c.67-5,1.51-9.88,2.49-14.78.31-1.57-2.1-2.24-2.41-.66Z" transform="translate(-15.89 -12.45)"/>
  <path class="cls-1" d="M280,65.17c-5.79-.45-11.23,3.28-13.73,8.39A18.83,18.83,0,0,0,267,91c1.48,2.45,3.81,4.93,6.89,4.9s5.74-2.42,7.87-4.5c2.78-2.73,5.54-5.48,8.31-8.23a72.62,72.62,0,0,0,7.22-7.46c1.72-2.27,2.91-5.25,1.89-8.07-.79-2.17-3-4.49-5.48-3.81A4.71,4.71,0,0,0,291,66.19a43.81,43.81,0,0,0-2.41,5,24.33,24.33,0,0,0-2.4,9.93c.08,4.94,3.06,11.45,8.87,11.16,5.23-.27,8.36-5.92,10.53-10,3.35-6.3,6.65-12.9,12.6-17.23,1-.72,2.94-1.89,3.84-.48a7.35,7.35,0,0,1,.64,2.91c.15,1.12.29,2.25.44,3.37l1.7,13a1.26,1.26,0,0,0,2.33.63l7.17-9.39L332,74.52c-.42,3.27,2.17,5.68,4.93,6.9,3.59,1.58,7.84,2.13,11.69,2.66a83.37,83.37,0,0,0,25.81-.48,82.51,82.51,0,0,0,14.58-4c1.5-.56.85-3-.66-2.41a80.94,80.94,0,0,1-47.13,2.92c-2.79-.68-7.19-2-6.72-5.62.18-1.39-1.69-1.47-2.33-.63L325,83.28l2.33.63L326,73.55l-.63-4.83a21.32,21.32,0,0,0-.78-4.57c-.93-2.53-3.41-3.2-5.78-2.24s-4.43,3.1-6.18,5a43.7,43.7,0,0,0-5.22,6.82c-1.41,2.26-2.53,4.68-3.77,7a33.07,33.07,0,0,1-3.91,6.18c-1.25,1.45-2.88,2.89-4.9,2.89-5.5,0-6.58-7.7-5.82-11.71a35.46,35.46,0,0,1,3.37-9c.41-.84,1.05-2.78,2.2-2.83,1,0,1.8,1.17,2.15,1.93,1.16,2.59-.65,5.32-2.34,7.2-2.12,2.35-4.49,4.51-6.75,6.74l-7.27,7.2c-1.79,1.76-4.39,4.67-7.22,4s-4.7-4.46-5.45-7a16.8,16.8,0,0,1-.2-8.76c1.43-5.66,6.5-10.33,12.54-9.86,1.61.12,1.6-2.38,0-2.5Z" transform="translate(-15.89 -12.45)"/>
</svg>
