<svg id="Layer_1" data-name="Layer 1" xmlns="http://www.w3.org/2000/svg" width="347.47" height="91.1" viewBox="0 0 347.47 91.1">
  <defs>
    <style>
      .cls-1 {
        fill: #1d1d1b;
      }
    </style>
  </defs>
  <path class="cls-1" d="M45.13,35.31c-3.14-2.16-6.75-3.4-10.57-2.63a14.76,14.76,0,0,0-9.07,6.14c-3.88,5.54-5,14.42.53,19.32,3.15,2.78,7.38,3.4,11.41,3.74,1.41.12,1.7-2.14.34-2.46a16.88,16.88,0,0,0-15.31,4.41C18.1,67.93,16,73.9,15.9,79.8c-.13,5.72,1.59,11.93,5.89,15.93,3.87,3.6,9.57,5.1,14.54,3,7.07-3,9.35-12,11-18.72,1-4.06,1.72-8.17,2.48-12.27a94.07,94.07,0,0,1,2.1-9.84c.15-.49.43-1.33.54-1.58a6.18,6.18,0,0,1,.36-.73c.06-.1.42-.66.23-.39,0-.07.45-.46.15-.18.19-.17,0-.15.18-.08-.4-.12,0,.09,0,.14a5.9,5.9,0,0,1,1.21,2.36,33.23,33.23,0,0,1,1.12,4.39,78.63,78.63,0,0,1,1.21,9.55,1.25,1.25,0,0,0,2.5,0,48.92,48.92,0,0,1,2.13-10.5c.47-1.46,2.36-5.73,4-2.87,1.35,2.4,1,5.7,1.15,8.34l.44,11.27a29.16,29.16,0,0,0,1.06,7.72c.63,2,1.69,4.25,3.75,5.07,2.28.91,4.4-.42,5.77-2.21a34,34,0,0,0,4.25-8.42A62,62,0,0,0,86,57.69h-2.5l0,21.83c0,1.79,0,3.58,0,5.36A8.18,8.18,0,0,0,84.42,89a3.45,3.45,0,0,0,5.33.91c2.1-1.58,3.24-4.11,4-6.56q1.44-4.77,2.39-9.67a108.46,108.46,0,0,0,2-19.93A108.34,108.34,0,0,0,95.9,31.06a1.26,1.26,0,0,0-2.46.33L95.6,68.54c.18,3.07.35,6.15.54,9.22a13.85,13.85,0,0,0,1.48,6.13c.82,1.41,2.25,2.45,3.94,2,2.24-.65,3.09-3.51,3.81-5.43a55.45,55.45,0,0,0,3.42-18.77,1.25,1.25,0,0,0-2.5,0l-.48,9.71a60.25,60.25,0,0,0-.29,8.7c.17,1.85.73,4.07,2.66,4.82s4-.52,5.42-1.88c2.19-2.17,3.54-5.16,4.66-8A50.13,50.13,0,0,0,121,65.24c.36-2.11.91-4.76.19-6.86a2.08,2.08,0,0,0-1.94-1.55c-1.47,0-2.41,1.6-3,2.73-2.36,4.26-2.66,9.76-2.85,14.53s.53,10.27,4.17,13.62c3.88,3.58,9.73,3,13.55-.38,4.41-3.86,6.11-10.11,6.66-15.73.16-1.6-2.34-1.59-2.5,0-.42,4.32-1.61,8.94-4.4,12.37-2.32,2.86-6.24,4.75-9.84,3.1-3.77-1.72-4.91-6.43-5.12-10.19a42.57,42.57,0,0,1,1.21-12.67,15.23,15.23,0,0,1,1-2.78c.36-.74.93-1.37,1.3-2.06.09-.18.06,0-.35-.11-.1,0-.13-.12-.2-.15s0,0,0,0a17.61,17.61,0,0,1-.15,5c-.84,5.24-2.44,10.83-5.38,15.29a9.42,9.42,0,0,1-2.15,2.43c-.86.64-2,1.25-2.67,0A6.53,6.53,0,0,1,108,79c0-2.78.24-5.61.38-8.39l.45-9h-2.5a54,54,0,0,1-2.24,14.89c-.35,1.15-.74,2.3-1.17,3.42a9.46,9.46,0,0,1-1.51,3.09c-1.23,1.34-2-1.29-2.27-2.17A33.53,33.53,0,0,1,98.42,74L98,66,97,49.84,95.94,31.39l-2.45.33a105.56,105.56,0,0,1,1.12,35.85c-.41,2.93-1,5.85-1.62,8.74a46,46,0,0,1-2.32,8.23c-.44,1-2.34,4.62-3.81,3.53-.93-.7-.76-2.58-.77-3.59,0-1.65,0-3.31,0-5l0-21.83a1.25,1.25,0,0,0-2.5,0,60.08,60.08,0,0,1-3.49,20A37.14,37.14,0,0,1,76,86.33c-.6.86-1.55,2-2.74,1.88-1-.12-1.56-1.07-2-1.83a16.92,16.92,0,0,1-1.59-7c-.2-3.7-.29-7.4-.43-11.1-.12-3,0-6.12-.66-9.06-.47-2.06-1.62-4.55-4-4.72-2.93-.22-4.51,3-5.31,5.34a50.26,50.26,0,0,0-2.33,11.51h2.5c-.36-5.14-.82-10.79-2.79-15.6-.79-1.94-2.87-4.61-5.08-2.63-1.57,1.4-2.07,4-2.55,5.92-.83,3.41-1.4,6.88-2,10.33-.73,3.92-1.49,7.84-2.5,11.7a42.11,42.11,0,0,1-3.82,10.28c-1.92,3.36-5,5.78-9,5.83-5.64.07-10.14-4.2-12-9.28a22.45,22.45,0,0,1,1.71-18.86c3.27-5.28,9.49-8.67,15.72-7.24l.33-2.45c-2.91-.25-6-.61-8.52-2.19a9.16,9.16,0,0,1-4.18-7.36c-.35-5.95,3.19-12.32,9-14.32,3.67-1.27,7.09-.17,10.17,2,1.33.91,2.58-1.26,1.27-2.16Z" transform="translate(-15.89 -12.45)"/>
  <path class="cls-1" d="M104.79,50.43a1.25,1.25,0,0,0,0-2.5,1.25,1.25,0,0,0,0,2.5Z" transform="translate(-15.89 -12.45)"/>
  <path class="cls-1" d="M83,50.43a1.25,1.25,0,0,0,0-2.5,1.25,1.25,0,0,0,0,2.5Z" transform="translate(-15.89 -12.45)"/>
  <path class="cls-1" d="M148.93,13.65A231.94,231.94,0,0,1,146,76.94q-1.6,8.88-3.78,17.62a1.25,1.25,0,0,0,2.41.67,252.33,252.33,0,0,0,7.75-63.5q-.1-9.06-1-18.08c-.15-1.59-2.66-1.61-2.5,0Z" transform="translate(-15.89 -12.45)"/>
  <path class="cls-1" d="M150.05,62.41c7.93,0,14.5-6.22,16.73-13.51.48-1.54-1.94-2.2-2.41-.67-1.9,6.24-7.51,11.72-14.32,11.68a1.25,1.25,0,0,0,0,2.5Z" transform="translate(-15.89 -12.45)"/>
  <path class="cls-1" d="M150.78,63.43c3.4.55,5.09,4.33,6,7.26,1.12,3.43,1.72,7.16,3.72,10.23,1.78,2.75,5.56,5.44,8.63,2.85a8.6,8.6,0,0,0,2.39-4.25A54.29,54.29,0,0,0,173,73.09,69.61,69.61,0,0,0,173.87,58a1.25,1.25,0,0,0-2.5,0,29.45,29.45,0,0,0,1,12.55A28.11,28.11,0,0,0,174.77,76a13.68,13.68,0,0,0,3.62,4.6c3.06,2.12,5.66-.65,6.54-3.49,1.2-3.86.58-8.22.5-12.19,0-1.47-.71-5.58,1.48-5.91,1.89-.28,3.94,1.82,5.06,3.07s2.83-.57,1.77-1.76c-1.88-2.11-5.38-4.93-8.38-3.41a5,5,0,0,0-2.43,4.25A56.75,56.75,0,0,0,183,67.8,50,50,0,0,1,183,74a8,8,0,0,1-1.4,4.25c-2.21,2.52-5.61-5.24-6.18-6.71A27.57,27.57,0,0,1,173.87,58h-2.5a67.55,67.55,0,0,1-.45,12.23c-.27,2.06-.65,4.1-1.12,6.13a14.17,14.17,0,0,1-1.69,4.92c-2.46,3.5-5.87-2-6.7-4.14-1.22-3.1-1.75-6.42-3.09-9.47s-3.47-6.07-6.88-6.62c-1.57-.25-2.25,2.16-.66,2.41Z" transform="translate(-15.89 -12.45)"/>
  <path class="cls-1" d="M191.83,28.34q2.83,26.4,3.13,53a1.25,1.25,0,0,0,2.5,0q-.3-26.55-3.13-53c-.17-1.59-2.67-1.6-2.5,0Z" transform="translate(-15.89 -12.45)"/>
  <path class="cls-1" d="M196.63,63l15.68-9a1.25,1.25,0,0,0-1.26-2.15l-15.68,9A1.25,1.25,0,0,0,196.63,63Z" transform="translate(-15.89 -12.45)"/>
  <path class="cls-1" d="M195.2,63.07a171.2,171.2,0,0,1,20.62,21.35c1,1.25,2.78-.53,1.77-1.77A170.43,170.43,0,0,0,197,61.31c-1.21-1.05-3,.71-1.77,1.76Z" transform="translate(-15.89 -12.45)"/>
  <path class="cls-1" d="M171.6,49.87a1.25,1.25,0,0,0,0-2.5,1.25,1.25,0,0,0,0,2.5Z" transform="translate(-15.89 -12.45)"/>
  <path class="cls-1" d="M211.78,65.09a21.64,21.64,0,0,1,10.13.94,1.27,1.27,0,0,0,1.54-.87,1.28,1.28,0,0,0-.88-1.54,24.31,24.31,0,0,0-11.45-.94,1.26,1.26,0,0,0-.88,1.54,1.29,1.29,0,0,0,1.54.87Z" transform="translate(-15.89 -12.45)"/>
  <path class="cls-1" d="M226.24,94.34C229.37,77,232.5,59.58,233.93,42q.63-7.53.78-15.11h-2.5l2,31.45,1,15.56a121.54,121.54,0,0,0,1.55,14.38A40.68,40.68,0,0,0,242.42,103c.87,1.35,3,.1,2.16-1.26-5.19-8-6.11-17.59-6.74-26.92q-1-15.29-2-30.58l-1.13-17.34a1.25,1.25,0,0,0-2.5,0c-.34,17.54-2.81,34.93-5.78,52.19-.84,4.88-1.72,9.75-2.6,14.61-.28,1.58,2.13,2.25,2.41.67Z" transform="translate(-15.89 -12.45)"/>
  <path class="cls-1" d="M225.81,66.05a29.77,29.77,0,0,0,20.54-2.42l-1.88-1.08-.05.71c-.13,1.61,2.37,1.6,2.5,0l.05-.71a1.26,1.26,0,0,0-1.88-1.08,27.08,27.08,0,0,1-18.61,2.17c-1.56-.39-2.23,2-.67,2.41Z" transform="translate(-15.89 -12.45)"/>
  <path class="cls-1" d="M244.58,63.6q.36,10.58,1.64,21.09c.19,1.54,2.52,1.65,2.5,0A59.17,59.17,0,0,1,251,67.59a8.82,8.82,0,0,1,1.22-3.07c1-1.26,2.15-.24,2.54,1a12.8,12.8,0,0,1,.24,3.86c0,1.54.09,3.08.23,4.62a26.86,26.86,0,0,0,1.33,7.35c.73,1.83,2.48,3.93,4.71,3.45s3.51-2.83,4-4.75a17.76,17.76,0,0,0,.42-3.41c.09-1.43.27-2.86.42-4.29.27-2.64.34-5,2.51-6.92a3.54,3.54,0,0,1,6,2.53c.08,1.6,2.59,1.61,2.5,0a6.29,6.29,0,0,0-4.11-5.78,6.41,6.41,0,0,0-6.67,2c-1.91,2-2.37,4.32-2.6,7-.12,1.38-.3,2.76-.43,4.14a20.16,20.16,0,0,1-.55,4.46c-.3.89-1.38,3.07-2.56,2.47s-1.51-2.08-1.77-3.19a45.17,45.17,0,0,1-1-9.64c0-2.58.16-5.75-2.33-7.34-2.19-1.4-4.49-.1-5.54,2-1.47,3-2.06,6.56-2.59,9.79a63,63,0,0,0-.83,10.89h2.5q-1.28-10.51-1.64-21.09c-.05-1.6-2.55-1.61-2.5,0Z" transform="translate(-15.89 -12.45)"/>
  <path class="cls-1" d="M263.09,79.66c.58,2.7,3.72,5,6.38,5.17,3.52.29,5.7-2.49,6.53-5.57C278.13,71.4,278,63,277.18,55c-.47-4.58-1.18-9.14-1.9-13.69-.25-1.58-2.66-.91-2.41.67,1.35,8.57,2.69,17.23,2.29,25.94a53,53,0,0,1-.66,6.4,23.42,23.42,0,0,1-1.43,5.84,3.46,3.46,0,0,1-4.24,2c-1.38-.48-3-1.67-3.33-3.16s-2.75-.91-2.41.66Z" transform="translate(-15.89 -12.45)"/>
  <path class="cls-1" d="M275.84,68.66a8.54,8.54,0,0,0,11.36,1.2,4.52,4.52,0,0,0,1.92-2.31,3,3,0,0,0-.91-2.84c-1.61-1.57-3.77-.89-5,.77a19.09,19.09,0,0,0-2.58,7,12.9,12.9,0,0,0,.44,7.63A6.16,6.16,0,0,0,286,84.24a5.09,5.09,0,0,0,5-3.14c1.14-2.46,1.3-5.19,2.68-7.57a12.41,12.41,0,0,1,5.79-5.23h-1.26c.17.1.16-.07.12.13a3.12,3.12,0,0,0,0,.43,7.65,7.65,0,0,1-.43,1.88c-.44,1.44-1,2.84-1.39,4.3a17.74,17.74,0,0,0-.05,8.07c.36,1.67,1.86,3.52,3.71,2.54,2-1.06,2.91-3.92,4-5.77a61.33,61.33,0,0,1,4-5.38l5-6.65-.74.58c-.78.17-.67-.62-.51.41.07.45.08.91.11,1.36a13.9,13.9,0,0,0,.43,3.27,7.22,7.22,0,0,0,5.59,4.92c3.06.34,5.58-2.18,7.55-4.17s3.67-4.16,6.11-5.32a5.77,5.77,0,0,1,1.52-.5,2.92,2.92,0,0,1,.55-.09l-.25-.16c-.06-.11-.05-.09,0,0a13.56,13.56,0,0,0,.09,2c-.06,1.73-.37,3.65.17,5.33.61,1.91,2.74,2.3,4.51,2.5a22.63,22.63,0,0,0,7.19-.63c3-.63,5.88-1.56,8.81-2.38a30.42,30.42,0,0,1,7.78-1.49,1.25,1.25,0,0,0,0-2.5c-5.6.07-11,2.52-16.42,3.78-2.55.59-5.37,1.16-8,.61a3.9,3.9,0,0,1-1.44-.44s-.09-.28-.13-.46a10.45,10.45,0,0,1-.06-2.85c.07-1.57.52-4.07-.78-5.31-1.74-1.66-5.19.39-6.67,1.51-2.49,1.89-4.4,4.4-6.76,6.42-1.29,1.1-3,2.15-4.65,1.24a5.15,5.15,0,0,1-2.5-3.34c-.33-1.7.29-4.95-1.48-6-1.36-.83-2.23.4-3,1.38l-3.84,5.08a60.3,60.3,0,0,0-5.35,7.68A14.87,14.87,0,0,1,299.52,83c-.19.23-.63.41-.23.49.25,0-.16-.37-.26-.58s.07.22,0,0-.07-.19-.09-.29a6,6,0,0,1-.1-.69,33.34,33.34,0,0,1-.25-4.11c.07-2.53,1.43-4.9,2-7.32.41-1.67.2-5.39-2.53-4.27a14.25,14.25,0,0,0-6.53,6.06,17.64,17.64,0,0,0-1.79,4.47c-.36,1.39-.57,3.13-1.58,4.23a2.51,2.51,0,0,1-3.71-.08,6.92,6.92,0,0,1-1.7-4.77,17.19,17.19,0,0,1,.93-5.35c.36-1.17.84-3.76,2.07-4.35.35-.17,1,0,.91.51s-1.31,1.18-1.7,1.39a6,6,0,0,1-7.37-1.43c-1.08-1.2-2.84.58-1.77,1.77Z" transform="translate(-15.89 -12.45)"/>
</svg>
